<svg width="61" height="48" viewBox="0 0 61 48" fill="none" xmlns="http://www.w3.org/2000/svg">
<ellipse cx="5.77208" cy="28.7736" rx="4.77208" ry="4.77358" stroke="white" stroke-width="1.5"/>
<ellipse cx="22.2565" cy="28.7736" rx="4.77208" ry="4.77358" stroke="white" stroke-width="1.5"/>
<ellipse cx="38.7447" cy="28.7736" rx="4.77208" ry="4.77358" stroke="white" stroke-width="1.5"/>
<ellipse cx="55.2291" cy="28.7736" rx="4.77208" ry="4.77358" stroke="white" stroke-width="1.5"/>
<path d="M3.82422 24.434C5.52671 11.2143 16.8207 1 30.4995 1C44.1784 1 55.4724 11.2143 57.1749 24.434" stroke="white" stroke-width="1.5"/>
<path d="M5.03125 24.2167C7.00578 16.3555 13.9698 10.5469 22.2577 10.5469C30.5457 10.5469 37.5097 16.3555 39.4842 24.2167" stroke="white" stroke-width="1.5"/>
<path d="M21.5391 33.5469C23.5565 41.2869 30.5921 46.9997 38.9616 46.9997C47.331 46.9997 54.2972 41.2869 56.3146 33.5469" stroke="white" stroke-width="1.5"/>
</svg>
