<svg xmlns="http://www.w3.org/2000/svg" width="61" height="48" fill="none" viewBox="0 0 61 48"><ellipse cx="5.772" cy="28.774" stroke="#fff" stroke-width="1.5" rx="4.772" ry="4.774"/><ellipse cx="22.256" cy="28.774" stroke="#fff" stroke-width="1.5" rx="4.772" ry="4.774"/><ellipse cx="38.745" cy="28.774" stroke="#fff" stroke-width="1.5" rx="4.772" ry="4.774"/><ellipse cx="55.229" cy="28.774" stroke="#fff" stroke-width="1.5" rx="4.772" ry="4.774"/><path stroke="#fff" stroke-width="1.5" d="M3.82422 24.434C5.52671 11.2143 16.8207 1 30.4995 1C44.1784 1 55.4724 11.2143 57.1749 24.434"/><path stroke="#fff" stroke-width="1.5" d="M5.03125 24.2167C7.00578 16.3555 13.9698 10.5469 22.2577 10.5469C30.5457 10.5469 37.5097 16.3555 39.4842 24.2167"/><path stroke="#fff" stroke-width="1.5" d="M21.5391 33.5469C23.5565 41.2869 30.5921 46.9997 38.9616 46.9997C47.331 46.9997 54.2972 41.2869 56.3146 33.5469"/></svg>