<svg width="59" height="66" viewBox="0 0 59 66" fill="none" xmlns="http://www.w3.org/2000/svg">
<path d="M21.2556 32.717H22.0056V32.2534L21.591 32.0461L21.2556 32.717ZM20.5056 36.4856C20.5056 36.8998 20.8413 37.2356 21.2556 37.2356C21.6698 37.2356 22.0056 36.8998 22.0056 36.4856H20.5056ZM4.29688 32.717L3.96146 32.0461L3.54688 32.2534V32.717H4.29688ZM3.54688 36.4856C3.54688 36.8998 3.88266 37.2356 4.29688 37.2356C4.71109 37.2356 5.04688 36.8998 5.04688 36.4856H3.54688ZM15.7948 21.4112C15.7948 23.0783 14.4433 24.4298 12.7762 24.4298V25.9298C15.2718 25.9298 17.2948 23.9067 17.2948 21.4112H15.7948ZM12.7762 24.4298C11.1091 24.4298 9.75762 23.0783 9.75762 21.4112H8.25762C8.25762 23.9067 10.2807 25.9298 12.7762 25.9298V24.4298ZM9.75762 21.4112C9.75762 19.744 11.1091 18.3926 12.7762 18.3926V16.8926C10.2807 16.8926 8.25762 18.9156 8.25762 21.4112H9.75762ZM12.7762 18.3926C14.4433 18.3926 15.7948 19.744 15.7948 21.4112H17.2948C17.2948 18.9156 15.2718 16.8926 12.7762 16.8926V18.3926ZM12.0262 25.1798V28.4773H13.5262V25.1798H12.0262ZM12.4408 29.1481L20.9201 33.3878L21.591 32.0461L13.1116 27.8065L12.4408 29.1481ZM20.5056 32.717V36.4856H22.0056V32.717H20.5056ZM12.4408 27.8065L3.96146 32.0461L4.63229 33.3878L13.1116 29.1481L12.4408 27.8065ZM3.54688 32.717V36.4856H5.04688V32.717H3.54688ZM16.5448 22.1612H28.7927V20.6612H16.5448V22.1612Z" fill="white"/>
<path d="M1 7.75H58" stroke="white" stroke-width="1.5" stroke-linecap="round"/>
<path d="M53.6694 7.84921L43.2311 25.929C41.0636 29.6832 36.2631 30.9695 32.5089 28.802V28.802C28.7547 26.6345 27.4684 21.834 29.6359 18.0798L35.5425 7.84921" stroke="white" stroke-width="1.5"/>
<circle cx="36.3296" cy="21.4116" r="1.8843" stroke="white" stroke-width="1.5"/>
<rect x="1" y="57" width="57" height="8" rx="4" stroke="white" stroke-width="1.5"/>
<path d="M19 48V46C19 45.4477 18.5523 45 18 45H8C7.44772 45 7 45.4477 7 46V48M19 48V56C19 56.5523 18.5523 57 18 57H8C7.44772 57 7 56.5523 7 56V48M19 48H7" stroke="white" stroke-width="1.5"/>
<path d="M36 48V46C36 45.4477 35.5523 45 35 45H25C24.4477 45 24 45.4477 24 46V48M36 48V56C36 56.5523 35.5523 57 35 57H25C24.4477 57 24 56.5523 24 56V48M36 48H24" stroke="white" stroke-width="1.5"/>
<path d="M53 48V46C53 45.4477 52.5523 45 52 45H42C41.4477 45 41 45.4477 41 46V48M53 48V56C53 56.5523 52.5523 57 52 57H42C41.4477 57 41 56.5523 41 56V48M53 48H41" stroke="white" stroke-width="1.5"/>
</svg>
