<svg xmlns="http://www.w3.org/2000/svg" width="59" height="59" fill="none" viewBox="0 0 59 59"><g clip-path="url(#clip0)"><path fill="#fff" d="M29.4999 26.0447C32.6769 26.0447 35.2615 23.4601 35.2615 20.2831C35.2615 17.1062 32.6769 14.5215 29.4999 14.5215C26.3229 14.5215 23.7383 17.1062 23.7383 20.2831C23.7383 23.4601 26.3229 26.0447 29.4999 26.0447ZM29.4999 16.8261C31.4061 16.8261 32.9569 18.3769 32.9569 20.2831C32.9569 22.1893 31.4061 23.7401 29.4999 23.7401C27.5937 23.7401 26.0429 22.1893 26.0429 20.2831C26.0429 18.3769 27.5937 16.8261 29.4999 16.8261Z"/><path fill="#fff" d="M21.0562 51.9449C20.492 49.4971 18.364 47.6405 15.7851 47.4879C14.281 44.3789 10.7669 42.4378 7.13209 42.9512C3.33276 43.4875 0 47.218 0 50.9347C0 55.1095 3.6372 59.001 8.29675 59.001H24.3141C24.9504 59.001 25.4664 58.4851 25.4664 57.8487C25.4664 57.2122 24.9504 56.6964 24.3141 56.6964H8.29675C5.10469 56.6964 2.30465 54.0041 2.30465 50.9347C2.30465 48.3776 4.80727 45.6068 7.45416 45.2332C9.79454 44.9025 12.1313 45.9977 13.3579 47.8692C12.6167 48.1569 11.9361 48.5963 11.3669 49.1665C10.9172 49.6168 10.9178 50.3465 11.3682 50.7962C11.5931 51.0208 11.8877 51.133 12.1823 51.133C12.4775 51.133 12.7726 51.0202 12.9977 50.7949C13.5789 50.2128 14.3386 49.8213 15.441 49.7825C17.3472 49.7825 18.898 51.3333 18.898 53.2395C18.898 53.8759 19.414 54.3918 20.0504 54.3918C23.2984 54.3918 26.0424 51.7533 26.0424 48.6302V44.4818H32.9564V48.6302C32.9564 51.7533 35.7004 54.3918 38.9485 54.3918C39.5848 54.3918 40.1008 53.8759 40.1008 53.2395C40.1008 51.3333 41.6516 49.7825 43.5556 49.7825C44.5948 49.8148 45.3878 50.1806 46.0012 50.7949C46.449 51.2434 47.1784 51.2477 47.6308 50.7962C48.0811 50.3466 48.0817 49.6169 47.6321 49.1665C47.0628 48.5963 46.3823 48.1569 45.641 47.8692C46.8673 45.9979 49.2036 44.9029 51.545 45.2332C54.2417 45.6135 56.7442 48.4296 56.6945 51.0276C56.6347 54.1004 53.8907 56.6964 50.7022 56.6964H34.685C34.0487 56.6964 33.5327 57.2122 33.5327 57.8487C33.5327 58.4851 34.0487 59.001 34.685 59.001H50.7023C55.1161 59.001 58.9153 55.3701 58.9988 51.072C59.0711 47.2919 55.7385 43.4972 51.8671 42.9512C48.2306 42.4379 44.7176 44.3799 43.2139 47.4879C40.635 47.6403 38.507 49.4971 37.9429 51.9449C36.4317 51.5119 35.2612 50.1478 35.2612 48.6301V44.4817H36.4135C36.9912 44.4817 37.4794 44.0541 37.5557 43.4816L38.037 39.8724H43.1085C45.1354 39.8724 46.7844 38.2234 46.7844 36.1965C46.7844 35.3201 46.4703 34.4708 45.8998 33.8045L39.7957 26.6832L40.3891 22.2326C41.5621 13.4289 37.2788 4.47929 30.0925 0.166246C29.7275 -0.0528112 29.2715 -0.0528112 28.9064 0.166246C21.7186 4.48021 17.4372 13.4308 18.6098 22.2329L19.2033 26.6833L13.0989 33.8049C12.5288 34.4709 12.2147 35.3201 12.2147 36.1965C12.2147 38.2234 13.8637 39.8724 15.8906 39.8724H20.9621L21.4434 43.4816C21.5197 44.0541 22.0079 44.4817 22.5856 44.4817H23.7379V48.6301C23.7379 50.1478 22.5674 51.5119 21.0562 51.9449ZM44.1496 35.304C44.3626 35.5527 44.4798 35.8696 44.4798 36.1966C44.4798 36.9527 43.8645 37.5679 43.1085 37.5679H38.3443L39.3871 29.7479L44.1496 35.304ZM29.4995 2.51503C31.2549 3.66886 32.8292 5.16411 34.142 6.91588H24.857C26.1698 5.16411 27.7442 3.66886 29.4995 2.51503ZM23.3655 9.22053H35.6337C37.8032 13.1202 38.6805 17.607 38.1049 21.9281L36.0189 37.5677H22.9799L20.8943 21.9284C20.3186 17.6072 21.1959 13.1205 23.3655 9.22053ZM15.8906 37.5677C15.1344 37.5677 14.5193 36.9526 14.5193 36.1965C14.5193 35.8696 14.6366 35.5526 14.8491 35.3043L19.612 29.7479L20.6547 37.5677H15.8906ZM23.2872 39.8724H35.7117L35.4046 42.177H23.5946L23.2872 39.8724Z"/><path fill="#fff" d="M29.5 59C30.1364 59 30.6523 58.4841 30.6523 57.8477C30.6523 57.2112 30.1364 56.6953 29.5 56.6953C28.8636 56.6953 28.3477 57.2112 28.3477 57.8477C28.3477 58.4841 28.8636 59 29.5 59Z"/></g><defs><clipPath id="clip0"><rect width="59" height="59" fill="#fff"/></clipPath></defs></svg>