<svg xmlns="http://www.w3.org/2000/svg" width="59" height="59" fill="none" viewBox="0 0 59 59"><rect width="33.476" height="33.476" x="12.762" y="12.762" stroke="#fff" stroke-width="1.5" rx="2"/><path stroke="#fff" stroke-width="1.5" d="M16.3798 4.61905C17.3792 4.61905 18.1894 3.8089 18.1894 2.80952C18.1894 1.81015 17.3792 1 16.3798 1C15.3805 1 14.5703 1.81015 14.5703 2.80952C14.5703 3.8089 15.3805 4.61905 16.3798 4.61905ZM16.3798 4.61905V13.2143"/><path stroke="#fff" stroke-width="1.5" d="M22.7119 4.61905C23.7112 4.61905 24.5214 3.8089 24.5214 2.80952C24.5214 1.81015 23.7112 1 22.7119 1C21.7125 1 20.9023 1.81015 20.9023 2.80952C20.9023 3.8089 21.7125 4.61905 22.7119 4.61905ZM22.7119 4.61905V12.7619"/><path stroke="#fff" stroke-width="1.5" d="M29.0478 4.61905C30.0472 4.61905 30.8573 3.8089 30.8573 2.80952C30.8573 1.81015 30.0472 1 29.0478 1C28.0484 1 27.2383 1.81015 27.2383 2.80952C27.2383 3.8089 28.0484 4.61905 29.0478 4.61905ZM29.0478 4.61905V12.3095"/><path fill="#fff" d="M35.3823 20L35.9126 20.5303L36.1323 20.3107V20H35.3823ZM32.1376 22.184C31.8447 22.4768 31.8447 22.9517 32.1376 23.2446C32.4305 23.5375 32.9054 23.5375 33.1983 23.2446L32.1376 22.184ZM36.4418 2.80952C36.4418 3.39468 35.9674 3.86905 35.3823 3.86905V5.36905C36.7958 5.36905 37.9418 4.22311 37.9418 2.80952H36.4418ZM35.3823 3.86905C34.7971 3.86905 34.3227 3.39468 34.3227 2.80952H32.8227C32.8227 4.22311 33.9687 5.36905 35.3823 5.36905V3.86905ZM34.3227 2.80952C34.3227 2.22436 34.7971 1.75 35.3823 1.75V0.25C33.9687 0.25 32.8227 1.39594 32.8227 2.80952H34.3227ZM35.3823 1.75C35.9674 1.75 36.4418 2.22436 36.4418 2.80952H37.9418C37.9418 1.39594 36.7958 0.25 35.3823 0.25V1.75ZM34.6323 4.61905V20H36.1323V4.61905H34.6323ZM34.8519 19.4697L32.1376 22.184L33.1983 23.2446L35.9126 20.5303L34.8519 19.4697Z"/><path fill="#fff" d="M41.7167 22.7143L42.247 23.2446L42.4667 23.0249V22.7143H41.7167ZM37.5673 25.803C37.2744 26.0959 37.2744 26.5708 37.5673 26.8637C37.8602 27.1566 38.3351 27.1566 38.628 26.8637L37.5673 25.803ZM42.7762 2.80952C42.7762 3.39468 42.3019 3.86905 41.7167 3.86905V5.36905C43.1303 5.36905 44.2762 4.22311 44.2762 2.80952H42.7762ZM41.7167 3.86905C41.1315 3.86905 40.6572 3.39468 40.6572 2.80952H39.1572C39.1572 4.22311 40.3031 5.36905 41.7167 5.36905V3.86905ZM40.6572 2.80952C40.6572 2.22436 41.1315 1.75 41.7167 1.75V0.25C40.3031 0.25 39.1572 1.39594 39.1572 2.80952H40.6572ZM41.7167 1.75C42.3019 1.75 42.7762 2.22436 42.7762 2.80952H44.2762C44.2762 1.39594 43.1303 0.25 41.7167 0.25V1.75ZM40.9667 4.61905V22.7143H42.4667V4.61905H40.9667ZM41.1864 22.184L37.5673 25.803L38.628 26.8637L42.247 23.2446L41.1864 22.184Z"/><circle cx="36.286" cy="27.237" r="1.81" stroke="#fff" stroke-width="1.5"/><circle cx="30.856" cy="23.62" r="1.81" stroke="#fff" stroke-width="1.5"/><path stroke="#fff" stroke-width="1.5" d="M16.3798 54.381C17.3792 54.381 18.1894 55.1911 18.1894 56.1905C18.1894 57.1898 17.3792 58 16.3798 58C15.3805 58 14.5703 57.1898 14.5703 56.1905C14.5703 55.1911 15.3805 54.381 16.3798 54.381ZM16.3798 54.381V45.7857"/><path stroke="#fff" stroke-width="1.5" d="M22.7119 54.381C23.7112 54.381 24.5214 55.1911 24.5214 56.1905C24.5214 57.1898 23.7112 58 22.7119 58C21.7125 58 20.9023 57.1898 20.9023 56.1905C20.9023 55.1911 21.7125 54.381 22.7119 54.381ZM22.7119 54.381V40.8095L20.9023 39"/><path stroke="#fff" stroke-width="1.5" d="M29.0487 54.381C30.0481 54.381 30.8583 55.1911 30.8583 56.1905C30.8583 57.1898 30.0481 58 29.0487 58C28.0494 58 27.2392 57.1898 27.2392 56.1905C27.2392 55.1911 28.0494 54.381 29.0487 54.381ZM29.0487 54.381V41.2619L25.4297 37.6429V33.5714"/><path stroke="#fff" stroke-width="1.5" d="M35.3798 54.381C36.3792 54.381 37.1894 55.1911 37.1894 56.1905C37.1894 57.1898 36.3792 58 35.3798 58C34.3805 58 33.5703 57.1898 33.5703 56.1905C33.5703 55.1911 34.3805 54.381 35.3798 54.381ZM35.3798 54.381V46.2381"/><path stroke="#fff" stroke-width="1.5" d="M41.7158 54.381C42.7151 54.381 43.5253 55.1911 43.5253 56.1905C43.5253 57.1898 42.7151 58 41.7158 58C40.7164 58 39.9062 57.1898 39.9062 56.1905C39.9062 55.1911 40.7164 54.381 41.7158 54.381ZM41.7158 54.381V46.2381"/><path stroke="#fff" stroke-width="1.5" d="M54.381 16.3818C54.381 17.3812 55.1911 18.1913 56.1905 18.1913C57.1898 18.1913 58 17.3812 58 16.3818C58 15.3824 57.1898 14.5723 56.1905 14.5723C55.1911 14.5723 54.381 15.3824 54.381 16.3818ZM54.381 16.3818H45.7857"/><path stroke="#fff" stroke-width="1.5" d="M54.381 22.7158C54.381 23.7151 55.1911 24.5253 56.1905 24.5253C57.1898 24.5253 58 23.7151 58 22.7158C58 21.7164 57.1898 20.9062 56.1905 20.9062C55.1911 20.9062 54.381 21.7164 54.381 22.7158ZM54.381 22.7158H46.2381"/><path stroke="#fff" stroke-width="1.5" d="M54.381 29.0478C54.381 30.0472 55.1911 30.8573 56.1905 30.8573C57.1898 30.8573 58 30.0472 58 29.0478C58 28.0484 57.1898 27.2383 56.1905 27.2383C55.1911 27.2383 54.381 28.0484 54.381 29.0478ZM54.381 29.0478H46.6905"/><path fill="#fff" d="M35.381 35.381L34.8506 35.9114L35.0703 36.131H35.381V35.381ZM33.6494 32.5888C33.3565 32.2959 32.8816 32.2959 32.5887 32.5888C32.2958 32.8817 32.2958 33.3566 32.5887 33.6495L33.6494 32.5888ZM56.1905 36.4406C55.6053 36.4406 55.131 35.9662 55.131 35.381H53.631C53.631 36.7946 54.7769 37.9406 56.1905 37.9406V36.4406ZM55.131 35.381C55.131 34.7959 55.6053 34.3215 56.1905 34.3215V32.8215C54.7769 32.8215 53.631 33.9675 53.631 35.381H55.131ZM56.1905 34.3215C56.7756 34.3215 57.25 34.7959 57.25 35.381H58.75C58.75 33.9675 57.6041 32.8215 56.1905 32.8215V34.3215ZM57.25 35.381C57.25 35.9662 56.7756 36.4406 56.1905 36.4406V37.9406C57.6041 37.9406 58.75 36.7946 58.75 35.381H57.25ZM54.381 34.631H35.381V36.131H54.381V34.631ZM35.9113 34.8507L33.6494 32.5888L32.5887 33.6495L34.8506 35.9114L35.9113 34.8507Z"/><path stroke="#fff" stroke-width="1.5" d="M54.381 41.7158C54.381 42.7151 55.1911 43.5253 56.1905 43.5253C57.1898 43.5253 58 42.7151 58 41.7158C58 40.7164 57.1898 39.9062 56.1905 39.9062C55.1911 39.9062 54.381 40.7164 54.381 41.7158ZM54.381 41.7158H38.0952"/><circle cx="31.761" cy="31.763" r="1.81" stroke="#fff" stroke-width="1.5" transform="rotate(90 31.7608 31.7626)"/><circle cx="25.429" cy="31.763" r="1.81" stroke="#fff" stroke-width="1.5" transform="rotate(90 25.4288 31.7626)"/><circle cx="36.288" cy="41.716" r="1.81" stroke="#fff" stroke-width="1.5" transform="rotate(90 36.2881 41.7158)"/><circle cx="19.999" cy="38.097" r="1.81" stroke="#fff" stroke-width="1.5" transform="rotate(90 19.9991 38.0966)"/><circle cx="19.095" cy="22.716" r="1.81" stroke="#fff" stroke-width="1.5"/><circle cx="22.712" cy="16.382" r="1.81" stroke="#fff" stroke-width="1.5"/><path stroke="#fff" stroke-width="1.5" d="M4.61905 16.3818C4.61905 17.3812 3.8089 18.1913 2.80952 18.1913C1.81015 18.1913 1 17.3812 1 16.3818C1 15.3824 1.81015 14.5723 2.80952 14.5723C3.8089 14.5723 4.61905 15.3824 4.61905 16.3818ZM4.61905 16.3818L21.3571 16.3818"/><path stroke="#fff" stroke-width="1.5" d="M4.61905 22.7158C4.61905 23.7151 3.8089 24.5253 2.80952 24.5253C1.81015 24.5253 1 23.7151 1 22.7158C1 21.7164 1.81015 20.9062 2.80952 20.9062C3.8089 20.9062 4.61905 21.7164 4.61905 22.7158ZM4.61905 22.7158L17.2857 22.7158"/><path stroke="#fff" stroke-width="1.5" d="M4.61905 29.0478C4.61905 30.0472 3.8089 30.8573 2.80952 30.8573C1.81015 30.8573 1 30.0472 1 29.0478C1 28.0484 1.81015 27.2383 2.80952 27.2383C3.8089 27.2383 4.61905 28.0484 4.61905 29.0478ZM4.61905 29.0478H12.3095"/><path stroke="#fff" stroke-width="1.5" d="M4.61905 35.3818C4.61905 36.3812 3.8089 37.1913 2.80952 37.1913C1.81015 37.1913 1 36.3812 1 35.3818C1 34.3824 1.81015 33.5723 2.80952 33.5723C3.8089 33.5723 4.61905 34.3824 4.61905 35.3818ZM4.61905 35.3818H12.7619"/><path stroke="#fff" stroke-width="1.5" d="M4.61905 41.7158C4.61905 42.7151 3.8089 43.5253 2.80952 43.5253C1.81015 43.5253 1 42.7151 1 41.7158C1 40.7164 1.81015 39.9062 2.80952 39.9062C3.8089 39.9062 4.61905 40.7164 4.61905 41.7158ZM4.61905 41.7158H12.7619"/></svg>