<svg width="59" height="59" viewBox="0 0 59 59" fill="none" xmlns="http://www.w3.org/2000/svg">
<path d="M47.9375 11.0625C48.4845 11.0625 49.0192 10.9003 49.474 10.5964C49.9288 10.2925 50.2833 9.86059 50.4926 9.35523C50.7019 8.84988 50.7567 8.29381 50.65 7.75733C50.5433 7.22085 50.2799 6.72806 49.8931 6.34128C49.5063 5.9545 49.0135 5.6911 48.477 5.58439C47.9406 5.47768 47.3845 5.53245 46.8791 5.74177C46.3738 5.9511 45.9419 6.30557 45.638 6.76038C45.3341 7.21518 45.1719 7.74989 45.1719 8.29688C45.1719 9.03037 45.4633 9.73381 45.9819 10.2525C46.5006 10.7711 47.204 11.0625 47.9375 11.0625ZM47.9375 7.375C48.1198 7.375 48.2981 7.42907 48.4497 7.53037C48.6013 7.63166 48.7194 7.77564 48.7892 7.94409C48.859 8.11254 48.8772 8.2979 48.8417 8.47672C48.8061 8.65555 48.7183 8.81981 48.5894 8.94874C48.4604 9.07767 48.2962 9.16547 48.1173 9.20104C47.9385 9.23661 47.7532 9.21835 47.5847 9.14858C47.4163 9.0788 47.2723 8.96064 47.171 8.80904C47.0697 8.65744 47.0156 8.47921 47.0156 8.29688C47.0156 8.05238 47.1127 7.8179 47.2856 7.64501C47.4585 7.47213 47.693 7.375 47.9375 7.375Z" fill="white"/>
<path d="M19.3594 11.0625C19.9064 11.0625 20.4411 10.9003 20.8959 10.5964C21.3507 10.2925 21.7052 9.86059 21.9145 9.35523C22.1238 8.84988 22.1786 8.29381 22.0719 7.75733C21.9651 7.22085 21.7017 6.72806 21.315 6.34128C20.9282 5.9545 20.4354 5.6911 19.8989 5.58439C19.3624 5.47768 18.8064 5.53245 18.301 5.74177C17.7957 5.9511 17.3637 6.30557 17.0598 6.76038C16.756 7.21518 16.5938 7.74989 16.5938 8.29688C16.5938 9.03037 16.8851 9.73381 17.4038 10.2525C17.9224 10.7711 18.6259 11.0625 19.3594 11.0625ZM19.3594 7.375C19.5417 7.375 19.7199 7.42907 19.8715 7.53037C20.0231 7.63166 20.1413 7.77564 20.2111 7.94409C20.2809 8.11254 20.2991 8.2979 20.2635 8.47672C20.228 8.65555 20.1402 8.81981 20.0112 8.94874C19.8823 9.07767 19.7181 9.16547 19.5392 9.20104C19.3604 9.23661 19.175 9.21835 19.0066 9.14858C18.8381 9.0788 18.6942 8.96064 18.5929 8.80904C18.4916 8.65744 18.4375 8.47921 18.4375 8.29688C18.4375 8.05238 18.5346 7.8179 18.7075 7.64501C18.8804 7.47213 19.1149 7.375 19.3594 7.375Z" fill="white"/>
<path d="M35.9531 29.5H35.0312V27.1953C35.0312 26.5841 34.7884 25.9979 34.3562 25.5657C33.924 25.1334 33.3378 24.8906 32.7266 24.8906C32.1153 24.8906 31.5291 25.1334 31.0969 25.5657C30.6647 25.9979 30.4219 26.5841 30.4219 27.1953V29.5H8.29688V27.1953C8.29688 26.5841 8.05406 25.9979 7.62185 25.5657C7.18963 25.1334 6.60343 24.8906 5.99219 24.8906C5.38095 24.8906 4.79474 25.1334 4.36253 25.5657C3.93031 25.9979 3.6875 26.5841 3.6875 27.1953V29.5H2.76562C2.52113 29.5 2.28665 29.5971 2.11376 29.77C1.94088 29.9429 1.84375 30.1774 1.84375 30.4219V56.2344C1.84375 56.4789 1.94088 56.7134 2.11376 56.8862C2.28665 57.0591 2.52113 57.1562 2.76562 57.1562H35.9531C36.1976 57.1562 36.4321 57.0591 36.605 56.8862C36.7779 56.7134 36.875 56.4789 36.875 56.2344V30.4219C36.875 30.1774 36.7779 29.9429 36.605 29.77C36.4321 29.5971 36.1976 29.5 35.9531 29.5ZM32.2656 27.1953C32.2656 27.0731 32.3142 26.9558 32.4006 26.8694C32.4871 26.7829 32.6043 26.7344 32.7266 26.7344C32.8488 26.7344 32.9661 26.7829 33.0525 26.8694C33.1389 26.9558 33.1875 27.0731 33.1875 27.1953V29.5H32.2656V27.1953ZM5.53125 27.1953C5.53125 27.0731 5.57981 26.9558 5.66626 26.8694C5.7527 26.7829 5.86994 26.7344 5.99219 26.7344C6.11444 26.7344 6.23168 26.7829 6.31812 26.8694C6.40456 26.9558 6.45312 27.0731 6.45312 27.1953V29.5H5.53125V27.1953ZM35.0312 31.3438V33.1875H3.6875V31.3438H35.0312ZM35.0312 35.0312V51.625H3.6875V35.0312H35.0312ZM3.6875 55.3125V53.4688H35.0312V55.3125H3.6875Z" fill="white"/>
<path d="M11.9844 49.7812C12.7179 49.7812 13.4213 49.4899 13.94 48.9712C14.4586 48.4526 14.75 47.7491 14.75 47.0156V39.6406C14.75 38.9071 14.4586 38.2037 13.94 37.685C13.4213 37.1664 12.7179 36.875 11.9844 36.875C11.2509 36.875 10.5474 37.1664 10.0288 37.685C9.51013 38.2037 9.21875 38.9071 9.21875 39.6406V47.0156C9.21875 47.7491 9.51013 48.4526 10.0288 48.9712C10.5474 49.4899 11.2509 49.7812 11.9844 49.7812ZM11.0625 39.6406C11.0625 39.3961 11.1596 39.1616 11.3325 38.9888C11.5054 38.8159 11.7399 38.7188 11.9844 38.7188C12.2289 38.7188 12.4634 38.8159 12.6362 38.9888C12.8091 39.1616 12.9062 39.3961 12.9062 39.6406V47.0156C12.9062 47.2601 12.8091 47.4946 12.6362 47.6675C12.4634 47.8404 12.2289 47.9375 11.9844 47.9375C11.7399 47.9375 11.5054 47.8404 11.3325 47.6675C11.1596 47.4946 11.0625 47.2601 11.0625 47.0156V39.6406Z" fill="white"/>
<path d="M19.3594 49.7812C20.0929 49.7812 20.7963 49.4899 21.315 48.9712C21.8336 48.4526 22.125 47.7491 22.125 47.0156V39.6406C22.125 38.9071 21.8336 38.2037 21.315 37.685C20.7963 37.1664 20.0929 36.875 19.3594 36.875C18.6259 36.875 17.9224 37.1664 17.4038 37.685C16.8851 38.2037 16.5938 38.9071 16.5938 39.6406V47.0156C16.5938 47.7491 16.8851 48.4526 17.4038 48.9712C17.9224 49.4899 18.6259 49.7812 19.3594 49.7812ZM18.4375 39.6406C18.4375 39.3961 18.5346 39.1616 18.7075 38.9888C18.8804 38.8159 19.1149 38.7188 19.3594 38.7188C19.6039 38.7188 19.8384 38.8159 20.0112 38.9888C20.1841 39.1616 20.2812 39.3961 20.2812 39.6406V47.0156C20.2812 47.2601 20.1841 47.4946 20.0112 47.6675C19.8384 47.8404 19.6039 47.9375 19.3594 47.9375C19.1149 47.9375 18.8804 47.8404 18.7075 47.6675C18.5346 47.4946 18.4375 47.2601 18.4375 47.0156V39.6406Z" fill="white"/>
<path d="M26.7344 49.7812C27.4679 49.7812 28.1713 49.4899 28.69 48.9712C29.2086 48.4526 29.5 47.7491 29.5 47.0156V39.6406C29.5 38.9071 29.2086 38.2037 28.69 37.685C28.1713 37.1664 27.4679 36.875 26.7344 36.875C26.0009 36.875 25.2974 37.1664 24.7788 37.685C24.2601 38.2037 23.9688 38.9071 23.9688 39.6406V47.0156C23.9688 47.7491 24.2601 48.4526 24.7788 48.9712C25.2974 49.4899 26.0009 49.7812 26.7344 49.7812ZM25.8125 39.6406C25.8125 39.3961 25.9096 39.1616 26.0825 38.9888C26.2554 38.8159 26.4899 38.7188 26.7344 38.7188C26.9789 38.7188 27.2134 38.8159 27.3862 38.9888C27.5591 39.1616 27.6562 39.3961 27.6562 39.6406V47.0156C27.6562 47.2601 27.5591 47.4946 27.3862 47.6675C27.2134 47.8404 26.9789 47.9375 26.7344 47.9375C26.4899 47.9375 26.2554 47.8404 26.0825 47.6675C25.9096 47.4946 25.8125 47.2601 25.8125 47.0156V39.6406Z" fill="white"/>
<path d="M57.0014 50.192L53.3139 44.6608C53.2297 44.5346 53.1156 44.4311 52.9818 44.3595C52.848 44.288 52.6986 44.2505 52.5469 44.2505V12.8045C53.734 11.5911 54.3945 9.9584 54.3852 8.26091C54.3759 6.56343 53.6974 4.93812 52.4971 3.7378C51.2968 2.53747 49.6715 1.85902 47.974 1.84971C46.2765 1.84039 44.6439 2.50097 43.4305 3.68805H23.8664C22.653 2.50097 21.0203 1.84039 19.3229 1.84971C17.6254 1.85902 16.0001 2.53747 14.7997 3.7378C13.5994 4.93812 12.921 6.56343 12.9117 8.26091C12.9023 9.9584 13.5629 11.5911 14.75 12.8045V16.5943H13.8281C13.5836 16.5943 13.3491 16.6914 13.1763 16.8643C13.0034 17.0372 12.9062 17.2717 12.9062 17.5162V21.2037C12.9062 21.4482 13.0034 21.6827 13.1763 21.8555C13.3491 22.0284 13.5836 22.1255 13.8281 22.1255H14.75V24.8912C14.7501 25.1357 14.8472 25.3701 15.0201 25.5429L16.8639 27.3867L18.1674 26.0832L16.5938 24.5095V22.1255H22.125V24.5095L20.5514 26.0832L21.8549 27.3867L23.6986 25.5429C23.8715 25.3701 23.9687 25.1357 23.9688 24.8912V22.1255H24.8906C25.1351 22.1255 25.3696 22.0284 25.5425 21.8555C25.7154 21.6827 25.8125 21.4482 25.8125 21.2037V17.5162C25.8125 17.2717 25.7154 17.0372 25.5425 16.8643C25.3696 16.6914 25.1351 16.5943 24.8906 16.5943H23.9688V12.9068H43.3281V44.2505C43.1764 44.2505 43.027 44.288 42.8932 44.3595C42.7594 44.4311 42.6453 44.5346 42.5611 44.6608L38.8736 50.192C38.7729 50.3437 38.719 50.5216 38.7188 50.7037V56.2349C38.7188 56.4794 38.8159 56.7139 38.9888 56.8868C39.1616 57.0597 39.3961 57.1568 39.6406 57.1568H56.2344C56.4789 57.1568 56.7134 57.0597 56.8862 56.8868C57.0591 56.7139 57.1562 56.4794 57.1562 56.2349V50.7037C57.156 50.5216 57.1021 50.3437 57.0014 50.192ZM47.9375 3.68805C48.8491 3.68805 49.7403 3.95838 50.4983 4.46487C51.2563 4.97135 51.8471 5.69124 52.196 6.53349C52.5449 7.37575 52.6362 8.30254 52.4583 9.19667C52.2805 10.0908 51.8415 10.9121 51.1968 11.5567C50.5522 12.2014 49.7309 12.6404 48.8367 12.8182C47.9426 12.9961 47.0158 12.9048 46.1736 12.5559C45.3313 12.2071 44.6114 11.6163 44.1049 10.8583C43.5985 10.1002 43.3281 9.20907 43.3281 8.29742C43.3296 7.07539 43.8157 5.90383 44.6798 5.03972C45.5439 4.17561 46.7155 3.68951 47.9375 3.68805ZM42.1159 11.063H25.181C25.5966 10.2003 25.8125 9.25504 25.8125 8.29742C25.8125 7.33981 25.5966 6.39451 25.181 5.5318H42.1159C41.7002 6.39451 41.4844 7.33981 41.4844 8.29742C41.4844 9.25504 41.7002 10.2003 42.1159 11.063ZM19.3594 3.68805C20.271 3.68805 21.1622 3.95838 21.9202 4.46487C22.6782 4.97135 23.269 5.69124 23.6179 6.53349C23.9668 7.37575 24.058 8.30254 23.8802 9.19667C23.7023 10.0908 23.2633 10.9121 22.6187 11.5567C21.9741 12.2014 21.1528 12.6404 20.2586 12.8182C19.3645 12.9961 18.4377 12.9048 17.5954 12.5559C16.7532 12.2071 16.0333 11.6163 15.5268 10.8583C15.0203 10.1002 14.75 9.20907 14.75 8.29742C14.7515 7.07539 15.2376 5.90383 16.1017 5.03972C16.9658 4.17561 18.1373 3.68951 19.3594 3.68805ZM23.9688 20.2818H14.75V18.438H23.9688V20.2818ZM16.5938 16.5943V14.1191C17.4565 14.5347 18.4018 14.7505 19.3594 14.7505C20.317 14.7505 21.2623 14.5347 22.125 14.1191V16.5943H16.5938ZM45.1719 14.1191C46.0346 14.5347 46.9799 14.7505 47.9375 14.7505C48.8951 14.7505 49.8404 14.5347 50.7031 14.1191V44.2505H45.1719V14.1191ZM43.8213 46.0943H52.0537L54.5123 49.7818H41.3627L43.8213 46.0943ZM40.5625 55.313V51.6255H55.3125V55.313H40.5625Z" fill="white"/>
</svg>
