<svg width="44" height="60" viewBox="0 0 44 60" fill="none" xmlns="http://www.w3.org/2000/svg">
<path d="M15 37V12.4279C15 11.1797 15.2261 9.93977 15.742 8.80317C16.2324 7.72275 16.914 6.34003 17.625 5.26954C18.3699 4.14807 19.6022 2.68394 20.5695 1.58369C21.3327 0.715492 22.6673 0.715493 23.4305 1.5837C24.3978 2.68395 25.6301 4.14807 26.375 5.26954C27.086 6.34004 27.7676 7.72275 28.258 8.80317C28.7739 9.93977 29 11.1797 29 12.4279V37M15 50V52C15 55.866 18.134 59 22 59V59C25.866 59 29 55.866 29 52V50" stroke="white" stroke-width="1.5"/>
<path d="M18 22.7782C18 21.5916 18.2402 20.4047 18.8668 19.397C19.0629 19.0815 19.279 18.763 19.5 18.488C19.9694 17.9041 20.7776 17.1233 21.3478 16.5933C21.717 16.2501 22.283 16.2501 22.6522 16.5933C23.2224 17.1233 24.0306 17.9041 24.5 18.488C24.721 18.763 24.9371 19.0815 25.1332 19.397C25.7598 20.4047 26 21.5916 26 22.7782V42C26 44.2091 24.2091 46 22 46V46C19.7909 46 18 44.2091 18 42V22.7782Z" stroke="white" stroke-width="1.5"/>
<path d="M32 39.5V20.986C32 19.6777 32.2235 18.3631 32.8651 17.223C33.0071 16.9707 33.1584 16.7226 33.3125 16.5023C33.6892 15.9636 34.3153 15.2585 34.8013 14.7341C35.1805 14.3251 35.8195 14.3251 36.1987 14.7341C36.6847 15.2585 37.3108 15.9636 37.6875 16.5023C37.8416 16.7226 37.9929 16.9707 38.1349 17.223C38.7765 18.3631 39 19.6777 39 20.986V41.5" stroke="white" stroke-width="1.5"/>
<path d="M4 41.5V20.986C4 19.6777 4.22348 18.3631 4.86514 17.223C5.00711 16.9707 5.15842 16.7226 5.3125 16.5023C5.68921 15.9636 6.31528 15.2585 6.80134 14.7341C7.18046 14.3251 7.81954 14.3251 8.19866 14.7341C8.68472 15.2585 9.31079 15.9636 9.6875 16.5023C9.84158 16.7226 9.99289 16.9707 10.1349 17.223C10.7765 18.3631 11 19.6777 11 20.986V40" stroke="white" stroke-width="1.5"/>
<path d="M18.0625 29C18.0625 36.0933 10.625 41.6 6.25 41.6H4.37833C2.58089 41.6 1.18688 43.1698 1.39936 44.9546L1.89503 49.1182C1.95491 49.6212 2.38145 50 2.88801 50H7H9.5H12H22H32H34.5H37H41.112C41.6185 50 42.0451 49.6212 42.105 49.1182L42.6006 44.9546C42.8131 43.1698 41.4191 41.6 39.6217 41.6H37.75C33.375 41.6 26 36.5867 26 29" stroke="white" stroke-width="1.5"/>
<path d="M29 50L30.7642 53.9205C31.8256 56.2791 35.1744 56.2791 36.2358 53.9205L38 50" stroke="white" stroke-width="1.5"/>
<path d="M6 50L7.76424 53.9205C8.82558 56.2791 12.1744 56.2791 13.2358 53.9205L15 50" stroke="white" stroke-width="1.5"/>
<circle cx="22" cy="34" r="2" stroke="white" stroke-width="1.5"/>
<circle cx="22" cy="28" r="2" stroke="white" stroke-width="1.5"/>
</svg>
