<svg width="59" height="59" viewBox="0 0 59 59" fill="none" xmlns="http://www.w3.org/2000/svg">
<path d="M4.68545 7.8679H12.3755C13.5188 7.8679 13.5201 6.13803 12.3755 6.13803H4.68545C3.05596 6.13803 1.72987 4.81194 1.72987 3.182C1.72987 2.69901 2.12283 2.30604 2.60583 2.30604H56.3942C56.8772 2.30604 57.2701 2.69946 57.2701 3.182C57.2701 4.81194 55.944 6.13803 54.3146 6.13803H10.8347C9.69139 6.13803 9.69004 7.8679 10.8347 7.8679H39.759V9.16473C39.759 10.2734 40.6611 11.1755 41.7698 11.1755H42.9509C42.9532 14.7059 42.9451 14.5101 42.9572 14.5902L34.131 19.9599C30.7599 20.5 30.1486 25.0815 33.2051 26.5116L43.5626 31.3573C43.591 31.4473 43.6234 31.5355 43.6594 31.6219L42.3099 34.6059C41.6127 36.1485 43.6324 36.8124 44.0632 37.2315C45.0008 37.8662 45.9853 36.4438 45.0328 35.7987L43.9885 35.092L44.8964 33.0849C45.9051 33.7214 47.2141 33.7412 48.2553 33.0844L49.1632 35.092L48.1189 35.7987C47.1664 36.4438 48.1504 37.8666 49.0885 37.2315C49.5175 36.8138 51.5395 36.1485 50.8418 34.6054L49.4914 31.6201C50.3381 29.5819 48.8648 27.3074 46.647 27.2579L41.7045 23.9359L48.3395 21.389C50.7666 20.4573 51.8312 17.612 50.6235 15.3185V11.175H51.8046C52.9133 11.175 53.8149 10.2734 53.8149 9.16473V7.8679H54.3146C56.8983 7.8679 59 5.76577 59 3.182C59 1.74517 57.831 0.576172 56.3942 0.576172H2.60583C1.169 0.576172 0 1.74517 0 3.182C0 5.76577 2.10168 7.8679 4.68545 7.8679ZM33.0164 23.881C32.547 22.3388 34.2818 21.0312 35.6367 21.9413L44.5908 27.9601C44.1186 28.3427 43.7585 28.859 43.5689 29.45C33.9734 24.7538 33.4094 25.1724 33.0164 23.881ZM48.0014 30.4133C48.0014 31.1997 47.3613 31.8398 46.5749 31.8398C45.7881 31.8398 45.1485 31.1997 45.1485 30.4133C45.1485 29.6265 45.7881 28.9868 46.5749 28.9868C47.3613 28.9868 48.0014 29.6265 48.0014 30.4133ZM49.2127 18.2917C48.5024 20.1016 47.1052 19.7528 39.9499 22.7565C35.5417 19.7938 36.8304 20.6576 36.5824 20.4933L45.4294 15.111C47.5576 13.816 50.118 15.9834 49.2127 18.2917ZM48.8931 13.5486C47.576 12.8144 45.9799 12.8257 44.6803 13.5459V11.175H48.8931V13.5486ZM52.085 9.16473C52.085 9.31958 51.959 9.44517 51.8046 9.44517H41.7698C41.6149 9.44517 41.4889 9.31958 41.4889 9.16473V7.8679H52.085V9.16473Z" fill="white"/>
<path d="M53.4278 44.6565L45.7634 43.1324C44.2297 42.8272 42.733 41.9003 41.7405 41.2301C37.5034 38.7489 34.781 35.291 29.0431 35.291H18.8255C15.432 35.291 12.241 36.6126 9.84129 39.0127C8.33199 40.522 6.43017 41.551 4.34109 41.9886C1.82574 42.5152 0 44.7632 0 47.333V54.212C0 56.4316 2.27453 56.6953 2.92722 57.1266C4.20786 57.6955 5.6915 57.0005 6.08537 55.6573C7.31153 51.4783 13.252 51.4706 14.4975 55.6159C14.5065 55.629 15.3734 58.4266 18.1665 58.4266H42.2555C43.4312 58.4266 44.4174 57.5511 44.5493 56.3897C44.9527 52.8399 49.251 51.2379 51.8784 53.6601C52.6126 54.3375 53.0834 55.2135 53.2396 56.193C53.4458 57.4876 54.5482 58.4266 55.8608 58.4266C57.592 58.4266 59 57.0185 59 55.2878V51.4459C59 50.1869 58.6565 48.9517 58.007 47.8732C57.0032 46.2081 55.3346 45.0355 53.4278 44.6565ZM55.6235 49.96C55.6235 49.0012 56.7138 49.1344 56.7255 49.1304C57.0086 49.6989 57.1851 50.3142 57.2458 50.9462H55.6235V49.96ZM54.9479 55.9211C54.4762 52.961 51.9338 50.7819 48.908 50.7819C47.4171 50.7819 45.9263 51.3176 44.7645 52.3889C42.2834 54.6769 43.3776 56.6971 42.2555 56.6971H18.167C16.6833 56.6971 16.1625 55.1316 16.1544 55.1199C14.4115 49.3172 6.13218 49.3555 4.42572 55.1707C4.32669 55.5079 3.95758 55.6911 3.62988 55.5457C2.63599 55.0037 1.72987 54.9893 1.72987 54.212V47.333C1.72987 45.5775 2.97719 44.0416 4.69535 43.682C7.11482 43.1751 9.31688 41.9836 11.0643 40.2362C13.1376 38.1629 15.8938 37.0213 18.8255 37.0213H29.0431C34.0788 37.0213 36.3839 40.0629 40.7718 42.6638C41.9827 43.4817 43.6063 44.4675 45.4258 44.8294C52.3155 46.3882 53.7843 46.0137 55.5331 47.5716C54.5752 47.942 53.8937 48.8729 53.8937 49.9604V51.2852C53.8937 52.0522 54.5176 52.6765 55.285 52.6765H57.2701V55.2882C57.2701 56.7926 55.1559 57.2274 54.9479 55.9211Z" fill="white"/>
<path d="M40.5396 44.1183C35.3037 41.0313 33.4757 38.3008 29.1702 38.3008H25.5749C24.7926 38.3008 24.1404 38.8698 24.1525 39.7444L24.2281 50.0132C24.2448 51.1606 25.9742 51.1309 25.958 49.9884L25.8864 40.0306H29.1702C32.8032 40.0306 34.3881 42.4996 39.661 45.6083C39.8658 45.7289 39.9927 45.9562 39.9927 46.2015V53.0805C39.9927 53.2479 39.8563 53.3843 39.6889 53.3843H26.0786L26.0089 48.5211C25.9922 47.366 24.2623 47.3989 24.279 48.5458L24.3537 53.7116C24.3645 54.4849 25.0028 55.1142 25.7766 55.1142H39.6889C40.8106 55.1142 41.7226 54.2018 41.7226 53.0805V46.2015C41.7226 45.3467 41.2693 44.5486 40.5396 44.1183Z" fill="white"/>
<path d="M20.7081 38.3155L19.5288 38.2835C13.5523 38.1125 12.6989 41.5389 9.03928 43.4506C8.57159 43.6946 8.28125 44.1744 8.28125 44.7024V47.7273C8.28125 48.5061 8.91774 49.1394 9.69962 49.1394C9.70412 49.1394 10.1466 49.121 10.2699 49.121C13.5258 49.121 16.4912 51.1655 17.6494 54.2084C18.0114 55.16 18.9665 55.119 18.9778 55.123L20.6915 55.1077C21.4639 55.1001 22.0918 54.4663 22.0914 53.6939L22.0819 39.7271C22.0815 38.9565 21.4778 38.3366 20.7081 38.3155ZM19.1867 53.3909C17.6697 49.6647 13.925 47.2659 10.0111 47.3965V44.8924C10.7817 44.4729 12.1299 43.6271 13.5316 42.2253C16.132 39.6249 19.057 40.1007 20.3525 40.0363L20.3611 53.3806L19.1867 53.3909Z" fill="white"/>
</svg>
