<svg xmlns="http://www.w3.org/2000/svg" width="52" height="58" fill="none" viewBox="0 0 52 58"><path stroke="#fff" stroke-width="1.5" d="M22.5 25L11 33"/><path stroke="#fff" stroke-width="1.5" d="M30 25L41.5 33"/><path fill="#fff" d="M42.8367 57V57.75H43.3664L43.5435 57.2509L42.8367 57ZM9.16327 57L8.45646 57.2509L8.63362 57.75H9.16327V57ZM50.7425 34.7255L50.0357 34.4746L50.7425 34.7255ZM50.3725 33.5731L49.9515 34.1938L50.3725 33.5731ZM1.25749 34.7255L0.55069 34.9763L1.25749 34.7255ZM50.0357 34.4746L42.1299 56.7491L43.5435 57.2509L51.4493 34.9763L50.0357 34.4746ZM9.87007 56.7491L1.96429 34.4746L0.55069 34.9763L8.45646 57.2509L9.87007 56.7491ZM2.04855 34.1938C3.84927 32.9721 9.24589 29.3346 14.5333 26.0039C17.1783 24.3378 19.7864 22.7545 21.8996 21.5899C22.9573 21.007 23.879 20.5357 24.6129 20.2121C24.9801 20.0503 25.2891 19.9304 25.5375 19.8522C25.7987 19.77 25.9434 19.75 26 19.75V18.25C25.7126 18.25 25.394 18.3248 25.0871 18.4214C24.7674 18.522 24.4037 18.6651 24.0078 18.8396C23.2156 19.1888 22.2501 19.684 21.1756 20.2762C19.0242 21.4619 16.3872 23.0633 13.7338 24.7347C8.42451 28.0792 3.01114 31.7281 1.20643 32.9525L2.04855 34.1938ZM26 19.75C26.0566 19.75 26.2013 19.77 26.4625 19.8522C26.7109 19.9304 27.0199 20.0503 27.3871 20.2121C28.121 20.5357 29.0427 21.007 30.1004 21.5899C32.2136 22.7545 34.8217 24.3378 37.4667 26.0039C42.7541 29.3346 48.1507 32.9721 49.9515 34.1938L50.7936 32.9525C48.9889 31.7281 43.5755 28.0792 38.2662 24.7347C35.6128 23.0633 32.9758 21.4619 30.8244 20.2762C29.7499 19.684 28.7844 19.1888 27.9922 18.8396C27.5963 18.6651 27.2326 18.522 26.9129 18.4214C26.606 18.3248 26.2874 18.25 26 18.25V19.75ZM42.8367 56.25H26V57.75H42.8367V56.25ZM26 56.25H9.16327V57.75H26V56.25ZM25.25 19C25.25 19.029 25.25 19.058 25.25 19.087C25.25 19.1161 25.25 19.1452 25.25 19.1743C25.25 19.2034 25.25 19.2325 25.25 19.2617C25.25 19.2909 25.25 19.3201 25.25 19.3493C25.25 19.3786 25.25 19.4078 25.25 19.4371C25.25 19.4664 25.25 19.4957 25.25 19.5251C25.25 19.5544 25.25 19.5838 25.25 19.6133C25.25 19.6427 25.25 19.6721 25.25 19.7016C25.25 19.7311 25.25 19.7606 25.25 19.7901C25.25 19.8197 25.25 19.8492 25.25 19.8788C25.25 19.9084 25.25 19.938 25.25 19.9677C25.25 19.9973 25.25 20.027 25.25 20.0567C25.25 20.0865 25.25 20.1162 25.25 20.146C25.25 20.1757 25.25 20.2055 25.25 20.2354C25.25 20.2652 25.25 20.295 25.25 20.3249C25.25 20.3548 25.25 20.3847 25.25 20.4147C25.25 20.4446 25.25 20.4746 25.25 20.5046C25.25 20.5346 25.25 20.5646 25.25 20.5946C25.25 20.6247 25.25 20.6548 25.25 20.6849C25.25 20.715 25.25 20.7451 25.25 20.7753C25.25 20.8054 25.25 20.8356 25.25 20.8658C25.25 20.896 25.25 20.9263 25.25 20.9565C25.25 20.9868 25.25 21.0171 25.25 21.0474C25.25 21.0777 25.25 21.1081 25.25 21.1385C25.25 21.1688 25.25 21.1992 25.25 21.2297C25.25 21.2601 25.25 21.2905 25.25 21.321C25.25 21.3515 25.25 21.382 25.25 21.4125C25.25 21.443 25.25 21.4736 25.25 21.5042C25.25 21.5348 25.25 21.5654 25.25 21.596C25.25 21.6266 25.25 21.6573 25.25 21.6879C25.25 21.7186 25.25 21.7493 25.25 21.78C25.25 21.8108 25.25 21.8415 25.25 21.8723C25.25 21.9031 25.25 21.9339 25.25 21.9647C25.25 21.9955 25.25 22.0264 25.25 22.0572C25.25 22.0881 25.25 22.119 25.25 22.1499C25.25 22.1808 25.25 22.2118 25.25 22.2428C25.25 22.2737 25.25 22.3047 25.25 22.3357C25.25 22.3667 25.25 22.3978 25.25 22.4288C25.25 22.4599 25.25 22.491 25.25 22.5221C25.25 22.5532 25.25 22.5843 25.25 22.6154C25.25 22.6466 25.25 22.6778 25.25 22.709C25.25 22.7401 25.25 22.7714 25.25 22.8026C25.25 22.8338 25.25 22.8651 25.25 22.8964C25.25 22.9277 25.25 22.959 25.25 22.9903C25.25 23.0216 25.25 23.0529 25.25 23.0843C25.25 23.1157 25.25 23.1471 25.25 23.1785C25.25 23.2099 25.25 23.2413 25.25 23.2728C25.25 23.3042 25.25 23.3357 25.25 23.3672C25.25 23.3987 25.25 23.4302 25.25 23.4617C25.25 23.4932 25.25 23.5248 25.25 23.5564C25.25 23.5879 25.25 23.6195 25.25 23.6511C25.25 23.6827 25.25 23.7144 25.25 23.746C25.25 23.7777 25.25 23.8093 25.25 23.841C25.25 23.8727 25.25 23.9044 25.25 23.9362C25.25 23.9679 25.25 23.9996 25.25 24.0314C25.25 24.0632 25.25 24.095 25.25 24.1268C25.25 24.1586 25.25 24.1904 25.25 24.2222C25.25 24.2541 25.25 24.2859 25.25 24.3178C25.25 24.3497 25.25 24.3816 25.25 24.4135C25.25 24.4454 25.25 24.4773 25.25 24.5093C25.25 24.5412 25.25 24.5732 25.25 24.6052C25.25 24.6372 25.25 24.6692 25.25 24.7012C25.25 24.7332 25.25 24.7652 25.25 24.7973C25.25 24.8293 25.25 24.8614 25.25 24.8935C25.25 24.9256 25.25 24.9577 25.25 24.9898C25.25 25.0219 25.25 25.0541 25.25 25.0862C25.25 25.1184 25.25 25.1505 25.25 25.1827C25.25 25.2149 25.25 25.2471 25.25 25.2793C25.25 25.3115 25.25 25.3438 25.25 25.376C25.25 25.4083 25.25 25.4405 25.25 25.4728C25.25 25.5051 25.25 25.5374 25.25 25.5697C25.25 25.602 25.25 25.6343 25.25 25.6667C25.25 25.699 25.25 25.7313 25.25 25.7637C25.25 25.7961 25.25 25.8285 25.25 25.8609C25.25 25.8933 25.25 25.9257 25.25 25.9581C25.25 25.9905 25.25 26.023 25.25 26.0554C25.25 26.0879 25.25 26.1203 25.25 26.1528C25.25 26.1853 25.25 26.2178 25.25 26.2503C25.25 26.2828 25.25 26.3153 25.25 26.3479C25.25 26.3804 25.25 26.413 25.25 26.4455C25.25 26.4781 25.25 26.5106 25.25 26.5432C25.25 26.5758 25.25 26.6084 25.25 26.641C25.25 26.6736 25.25 26.7063 25.25 26.7389C25.25 26.7715 25.25 26.8042 25.25 26.8369C25.25 26.8695 25.25 26.9022 25.25 26.9349C25.25 26.9676 25.25 27.0003 25.25 27.033C25.25 27.0657 25.25 27.0984 25.25 27.1311C25.25 27.1639 25.25 27.1966 25.25 27.2294C25.25 27.2621 25.25 27.2949 25.25 27.3277C25.25 27.3604 25.25 27.3932 25.25 27.426C25.25 27.4588 25.25 27.4916 25.25 27.5244C25.25 27.5573 25.25 27.5901 25.25 27.6229C25.25 27.6558 25.25 27.6886 25.25 27.7215C25.25 27.7543 25.25 27.7872 25.25 27.8201C25.25 27.853 25.25 27.8858 25.25 27.9187C25.25 27.9516 25.25 27.9845 25.25 28.0175C25.25 28.0504 25.25 28.0833 25.25 28.1162C25.25 28.1492 25.25 28.1821 25.25 28.2151C25.25 28.248 25.25 28.281 25.25 28.314C25.25 28.3469 25.25 28.3799 25.25 28.4129C25.25 28.4459 25.25 28.4789 25.25 28.5119C25.25 28.5449 25.25 28.5779 25.25 28.6109C25.25 28.6439 25.25 28.6769 25.25 28.71C25.25 28.743 25.25 28.7761 25.25 28.8091C25.25 28.8422 25.25 28.8752 25.25 28.9083C25.25 28.9413 25.25 28.9744 25.25 29.0075C25.25 29.0406 25.25 29.0737 25.25 29.1067C25.25 29.1398 25.25 29.1729 25.25 29.206C25.25 29.2391 25.25 29.2722 25.25 29.3054C25.25 29.3385 25.25 29.3716 25.25 29.4047C25.25 29.4379 25.25 29.471 25.25 29.5041C25.25 29.5373 25.25 29.5704 25.25 29.6036C25.25 29.6367 25.25 29.6699 25.25 29.703C25.25 29.7362 25.25 29.7694 25.25 29.8025C25.25 29.8357 25.25 29.8689 25.25 29.9021C25.25 29.9353 25.25 29.9685 25.25 30.0016C25.25 30.0348 25.25 30.068 25.25 30.1012C25.25 30.1344 25.25 30.1676 25.25 30.2008C25.25 30.2341 25.25 30.2673 25.25 30.3005C25.25 30.3337 25.25 30.3669 25.25 30.4001C25.25 30.4334 25.25 30.4666 25.25 30.4998C25.25 30.5331 25.25 30.5663 25.25 30.5995C25.25 30.6328 25.25 30.666 25.25 30.6993C25.25 30.7325 25.25 30.7657 25.25 30.799C25.25 30.8322 25.25 30.8655 25.25 30.8987C25.25 30.932 25.25 30.9653 25.25 30.9985C25.25 31.0318 25.25 31.065 25.25 31.0983C25.25 31.1316 25.25 31.1648 25.25 31.1981C25.25 31.2314 25.25 31.2646 25.25 31.2979C25.25 31.3312 25.25 31.3644 25.25 31.3977C25.25 31.431 25.25 31.4643 25.25 31.4975C25.25 31.5308 25.25 31.5641 25.25 31.5974C25.25 31.6306 25.25 31.6639 25.25 31.6972C25.25 31.7305 25.25 31.7637 25.25 31.797C25.25 31.8303 25.25 31.8636 25.25 31.8969C25.25 31.9301 25.25 31.9634 25.25 31.9967C25.25 32.03 25.25 32.0633 25.25 32.0965C25.25 32.1298 25.25 32.1631 25.25 32.1964C25.25 32.2296 25.25 32.2629 25.25 32.2962C25.25 32.3295 25.25 32.3628 25.25 32.396C25.25 32.4293 25.25 32.4626 25.25 32.4958C25.25 32.5291 25.25 32.5624 25.25 32.5957C25.25 32.6289 25.25 32.6622 25.25 32.6955C25.25 32.7287 25.25 32.762 25.25 32.7952C25.25 32.8285 25.25 32.8618 25.25 32.895C25.25 32.9283 25.25 32.9615 25.25 32.9948C25.25 33.028 25.25 33.0613 25.25 33.0945C25.25 33.1278 25.25 33.161 25.25 33.1943C25.25 33.2275 25.25 33.2608 25.25 33.294C25.25 33.3272 25.25 33.3605 25.25 33.3937C25.25 33.4269 25.25 33.4601 25.25 33.4934C25.25 33.5266 25.25 33.5598 25.25 33.593C25.25 33.6262 25.25 33.6594 25.25 33.6926C25.25 33.7258 25.25 33.759 25.25 33.7922C25.25 33.8254 25.25 33.8586 25.25 33.8918C25.25 33.925 25.25 33.9582 25.25 33.9914C25.25 34.0246 25.25 34.0577 25.25 34.0909C25.25 34.1241 25.25 34.1572 25.25 34.1904C25.25 34.2235 25.25 34.2567 25.25 34.2898C25.25 34.323 25.25 34.3561 25.25 34.3893C25.25 34.4224 25.25 34.4555 25.25 34.4887C25.25 34.5218 25.25 34.5549 25.25 34.588C25.25 34.6211 25.25 34.6542 25.25 34.6873C25.25 34.7204 25.25 34.7535 25.25 34.7866C25.25 34.8197 25.25 34.8528 25.25 34.8859C25.25 34.9189 25.25 34.952 25.25 34.9851C25.25 35.0181 25.25 35.0512 25.25 35.0842C25.25 35.1172 25.25 35.1503 25.25 35.1833C25.25 35.2163 25.25 35.2494 25.25 35.2824C25.25 35.3154 25.25 35.3484 25.25 35.3814C25.25 35.4144 25.25 35.4474 25.25 35.4804C25.25 35.5133 25.25 35.5463 25.25 35.5793C25.25 35.6122 25.25 35.6452 25.25 35.6781C25.25 35.7111 25.25 35.744 25.25 35.7769C25.25 35.8099 25.25 35.8428 25.25 35.8757C25.25 35.9086 25.25 35.9415 25.25 35.9744C25.25 36.0073 25.25 36.0402 25.25 36.0731C25.25 36.1059 25.25 36.1388 25.25 36.1716C25.25 36.2045 25.25 36.2373 25.25 36.2702C25.25 36.303 25.25 36.3358 25.25 36.3686C25.25 36.4014 25.25 36.4342 25.25 36.467C25.25 36.4998 25.25 36.5326 25.25 36.5654C25.25 36.5981 25.25 36.6309 25.25 36.6636C25.25 36.6964 25.25 36.7291 25.25 36.7618C25.25 36.7946 25.25 36.8273 25.25 36.86C25.25 36.8927 25.25 36.9254 25.25 36.958C25.25 36.9907 25.25 37.0234 25.25 37.056C25.25 37.0887 25.25 37.1213 25.25 37.154C25.25 37.1866 25.25 37.2192 25.25 37.2518C25.25 37.2844 25.25 37.317 25.25 37.3496C25.25 37.3822 25.25 37.4147 25.25 37.4473C25.25 37.4798 25.25 37.5124 25.25 37.5449C25.25 37.5774 25.25 37.6099 25.25 37.6424C25.25 37.6749 25.25 37.7074 25.25 37.7399C25.25 37.7724 25.25 37.8048 25.25 37.8373C25.25 37.8697 25.25 37.9021 25.25 37.9345C25.25 37.967 25.25 37.9994 25.25 38.0317C25.25 38.0641 25.25 38.0965 25.25 38.1289C25.25 38.1612 25.25 38.1936 25.25 38.2259C25.25 38.2582 25.25 38.2905 25.25 38.3228C25.25 38.3551 25.25 38.3874 25.25 38.4197C25.25 38.4519 25.25 38.4842 25.25 38.5164C25.25 38.5487 25.25 38.5809 25.25 38.6131C25.25 38.6453 25.25 38.6775 25.25 38.7097C25.25 38.7418 25.25 38.774 25.25 38.8061C25.25 38.8383 25.25 38.8704 25.25 38.9025C25.25 38.9346 25.25 38.9667 25.25 38.9988C25.25 39.0309 25.25 39.0629 25.25 39.0949C25.25 39.127 25.25 39.159 25.25 39.191C25.25 39.223 25.25 39.255 25.25 39.287C25.25 39.319 25.25 39.3509 25.25 39.3828C25.25 39.4148 25.25 39.4467 25.25 39.4786C25.25 39.5105 25.25 39.5424 25.25 39.5742C25.25 39.6061 25.25 39.638 25.25 39.6698C25.25 39.7016 25.25 39.7334 25.25 39.7652C25.25 39.797 25.25 39.8288 25.25 39.8605C25.25 39.8923 25.25 39.924 25.25 39.9557C25.25 39.9874 25.25 40.0191 25.25 40.0508C25.25 40.0825 25.25 40.1141 25.25 40.1458C25.25 40.1774 25.25 40.209 25.25 40.2406C25.25 40.2722 25.25 40.3038 25.25 40.3354C25.25 40.3669 25.25 40.3985 25.25 40.43C25.25 40.4615 25.25 40.493 25.25 40.5245C25.25 40.5559 25.25 40.5874 25.25 40.6188C25.25 40.6503 25.25 40.6817 25.25 40.7131C25.25 40.7445 25.25 40.7758 25.25 40.8072C25.25 40.8385 25.25 40.8699 25.25 40.9012C25.25 40.9325 25.25 40.9638 25.25 40.995C25.25 41.0263 25.25 41.0575 25.25 41.0888C25.25 41.12 25.25 41.1512 25.25 41.1824C25.25 41.2135 25.25 41.2447 25.25 41.2758C25.25 41.3069 25.25 41.3381 25.25 41.3691C25.25 41.4002 25.25 41.4313 25.25 41.4623C25.25 41.4934 25.25 41.5244 25.25 41.5554C25.25 41.5864 25.25 41.6174 25.25 41.6483C25.25 41.6793 25.25 41.7102 25.25 41.7411C25.25 41.772 25.25 41.8029 25.25 41.8337C25.25 41.8646 25.25 41.8954 25.25 41.9262C25.25 41.957 25.25 41.9878 25.25 42.0186C25.25 42.0493 25.25 42.08 25.25 42.1108C25.25 42.1415 25.25 42.1721 25.25 42.2028C25.25 42.2335 25.25 42.2641 25.25 42.2947C25.25 42.3253 25.25 42.3559 25.25 42.3865C25.25 42.417 25.25 42.4476 25.25 42.4781C25.25 42.5086 25.25 42.5391 25.25 42.5695C25.25 42.6 25.25 42.6304 25.25 42.6608C25.25 42.6912 25.25 42.7216 25.25 42.752C25.25 42.7823 25.25 42.8126 25.25 42.8429C25.25 42.8732 25.25 42.9035 25.25 42.9338C25.25 42.964 25.25 42.9942 25.25 43.0244C25.25 43.0546 25.25 43.0848 25.25 43.1149C25.25 43.1451 25.25 43.1752 25.25 43.2053C25.25 43.2354 25.25 43.2654 25.25 43.2954C25.25 43.3255 25.25 43.3555 25.25 43.3855C25.25 43.4154 25.25 43.4454 25.25 43.4753C25.25 43.5052 25.25 43.5351 25.25 43.565C25.25 43.5948 25.25 43.6247 25.25 43.6545C25.25 43.6843 25.25 43.7141 25.25 43.7438C25.25 43.7736 25.25 43.8033 25.25 43.833C25.25 43.8627 25.25 43.8923 25.25 43.922C25.25 43.9516 25.25 43.9812 25.25 44.0108C25.25 44.0403 25.25 44.0699 25.25 44.0994C25.25 44.1289 25.25 44.1584 25.25 44.1879C25.25 44.2173 25.25 44.2467 25.25 44.2761C25.25 44.3055 25.25 44.3349 25.25 44.3642C25.25 44.3936 25.25 44.4229 25.25 44.4521C25.25 44.4814 25.25 44.5107 25.25 44.5399C25.25 44.5691 25.25 44.5983 25.25 44.6274C25.25 44.6566 25.25 44.6857 25.25 44.7148C25.25 44.7439 25.25 44.7729 25.25 44.8019C25.25 44.831 25.25 44.86 25.25 44.8889C25.25 44.9179 25.25 44.9468 25.25 44.9757C25.25 45.0046 25.25 45.0335 25.25 45.0623C25.25 45.0911 25.25 45.1199 25.25 45.1487C25.25 45.1775 25.25 45.2062 25.25 45.2349C25.25 45.2636 25.25 45.2923 25.25 45.3209C25.25 45.3496 25.25 45.3782 25.25 45.4067C25.25 45.4353 25.25 45.4639 25.25 45.4924C25.25 45.5209 25.25 45.5493 25.25 45.5778C25.25 45.6062 25.25 45.6346 25.25 45.663C25.25 45.6913 25.25 45.7197 25.25 45.748C25.25 45.7763 25.25 45.8046 25.25 45.8328C25.25 45.861 25.25 45.8892 25.25 45.9174C25.25 45.9455 25.25 45.9737 25.25 46.0018C25.25 46.0299 25.25 46.0579 25.25 46.0859C25.25 46.114 25.25 46.142 25.25 46.1699C25.25 46.1979 25.25 46.2258 25.25 46.2537C25.25 46.2816 25.25 46.3094 25.25 46.3372C25.25 46.365 25.25 46.3928 25.25 46.4205C25.25 46.4483 25.25 46.476 25.25 46.5036C25.25 46.5313 25.25 46.5589 25.25 46.5865C25.25 46.6141 25.25 46.6417 25.25 46.6692C25.25 46.6967 25.25 46.7242 25.25 46.7517C25.25 46.7791 25.25 46.8065 25.25 46.8339C25.25 46.8613 25.25 46.8886 25.25 46.9159C25.25 46.9432 25.25 46.9705 25.25 46.9977C25.25 47.0249 25.25 47.0521 25.25 47.0793C25.25 47.1064 25.25 47.1335 25.25 47.1606C25.25 47.1877 25.25 47.2147 25.25 47.2417C25.25 47.2687 25.25 47.2956 25.25 47.3226C25.25 47.3495 25.25 47.3764 25.25 47.4032C25.25 47.43 25.25 47.4568 25.25 47.4836C25.25 47.5104 25.25 47.5371 25.25 47.5638C25.25 47.5905 25.25 47.6171 25.25 47.6437C25.25 47.6703 25.25 47.6969 25.25 47.7234C25.25 47.7499 25.25 47.7764 25.25 47.8029C25.25 47.8293 25.25 47.8557 25.25 47.8821C25.25 47.9084 25.25 47.9348 25.25 47.9611C25.25 47.9873 25.25 48.0136 25.25 48.0398C25.25 48.066 25.25 48.0922 25.25 48.1183C25.25 48.1444 25.25 48.1705 25.25 48.1965C25.25 48.2226 25.25 48.2486 25.25 48.2745C25.25 48.3005 25.25 48.3264 25.25 48.3523C25.25 48.3781 25.25 48.404 25.25 48.4298C25.25 48.4556 25.25 48.4813 25.25 48.507C25.25 48.5327 25.25 48.5584 25.25 48.584C25.25 48.6096 25.25 48.6352 25.25 48.6608C25.25 48.6863 25.25 48.7118 25.25 48.7372C25.25 48.7627 25.25 48.7881 25.25 48.8135C25.25 48.8388 25.25 48.8642 25.25 48.8894C25.25 48.9147 25.25 48.9399 25.25 48.9651C25.25 48.9903 25.25 49.0155 25.25 49.0406C25.25 49.0657 25.25 49.0908 25.25 49.1158C25.25 49.1408 25.25 49.1658 25.25 49.1907C25.25 49.2156 25.25 49.2405 25.25 49.2653C25.25 49.2902 25.25 49.315 25.25 49.3397C25.25 49.3645 25.25 49.3892 25.25 49.4139C25.25 49.4385 25.25 49.4631 25.25 49.4877C25.25 49.5123 25.25 49.5368 25.25 49.5613C25.25 49.5858 25.25 49.6102 25.25 49.6346C25.25 49.659 25.25 49.6833 25.25 49.7076C25.25 49.7319 25.25 49.7562 25.25 49.7804C25.25 49.8046 25.25 49.8287 25.25 49.8529C25.25 49.877 25.25 49.901 25.25 49.9251C25.25 49.9491 25.25 49.9731 25.25 49.997C25.25 50.0209 25.25 50.0448 25.25 50.0686C25.25 50.0925 25.25 50.1162 25.25 50.14C25.25 50.1637 25.25 50.1874 25.25 50.2111C25.25 50.2347 25.25 50.2583 25.25 50.2818C25.25 50.3054 25.25 50.3289 25.25 50.3524C25.25 50.3758 25.25 50.3992 25.25 50.4226C25.25 50.4459 25.25 50.4692 25.25 50.4925C25.25 50.5158 25.25 50.539 25.25 50.5621C25.25 50.5853 25.25 50.6084 25.25 50.6315C25.25 50.6545 25.25 50.6776 25.25 50.7005C25.25 50.7235 25.25 50.7464 25.25 50.7693C25.25 50.7921 25.25 50.815 25.25 50.8377C25.25 50.8605 25.25 50.8832 25.25 50.9059C25.25 50.9286 25.25 50.9512 25.25 50.9738C25.25 50.9963 25.25 51.0188 25.25 51.0413C25.25 51.0638 25.25 51.0862 25.25 51.1086C25.25 51.1309 25.25 51.1533 25.25 51.1755C25.25 51.1978 25.25 51.22 25.25 51.2422C25.25 51.2643 25.25 51.2864 25.25 51.3085C25.25 51.3306 25.25 51.3526 25.25 51.3745C25.25 51.3965 25.25 51.4184 25.25 51.4403C25.25 51.4621 25.25 51.4839 25.25 51.5057C25.25 51.5274 25.25 51.5491 25.25 51.5708C25.25 51.5924 25.25 51.614 25.25 51.6356C25.25 51.6571 25.25 51.6786 25.25 51.7001C25.25 51.7215 25.25 51.7429 25.25 51.7642C25.25 51.7855 25.25 51.8068 25.25 51.8281C25.25 51.8493 25.25 51.8705 25.25 51.8916C25.25 51.9127 25.25 51.9338 25.25 51.9548C25.25 51.9758 25.25 51.9968 25.25 52.0177C25.25 52.0386 25.25 52.0594 25.25 52.0802C25.25 52.101 25.25 52.1218 25.25 52.1424C25.25 52.1631 25.25 52.1838 25.25 52.2044C25.25 52.2249 25.25 52.2455 25.25 52.2659C25.25 52.2864 25.25 52.3068 25.25 52.3272C25.25 52.3475 25.25 52.3679 25.25 52.3881C25.25 52.4084 25.25 52.4286 25.25 52.4487C25.25 52.4688 25.25 52.4889 25.25 52.5089C25.25 52.529 25.25 52.549 25.25 52.5689C25.25 52.5888 25.25 52.6086 25.25 52.6285C25.25 52.6483 25.25 52.668 25.25 52.6877C25.25 52.7074 25.25 52.727 25.25 52.7466C25.25 52.7662 25.25 52.7857 25.25 52.8052C25.25 52.8246 25.25 52.8441 25.25 52.8634C25.25 52.8828 25.25 52.9021 25.25 52.9213C25.25 52.9405 25.25 52.9597 25.25 52.9788C25.25 52.9979 25.25 53.017 25.25 53.036C25.25 53.055 25.25 53.074 25.25 53.0929C25.25 53.1118 25.25 53.1306 25.25 53.1494C25.25 53.1681 25.25 53.1869 25.25 53.2055C25.25 53.2242 25.25 53.2428 25.25 53.2613C25.25 53.2799 25.25 53.2983 25.25 53.3168C25.25 53.3352 25.25 53.3535 25.25 53.3718C25.25 53.3901 25.25 53.4084 25.25 53.4266C25.25 53.4448 25.25 53.4629 25.25 53.481C25.25 53.499 25.25 53.517 25.25 53.535C25.25 53.5529 25.25 53.5708 25.25 53.5886C25.25 53.6065 25.25 53.6242 25.25 53.6419C25.25 53.6596 25.25 53.6773 25.25 53.6949C25.25 53.7124 25.25 53.73 25.25 53.7474C25.25 53.7649 25.25 53.7823 25.25 53.7996C25.25 53.817 25.25 53.8343 25.25 53.8515C25.25 53.8687 25.25 53.8859 25.25 53.903C25.25 53.92 25.25 53.9371 25.25 53.9541C25.25 53.971 25.25 53.9879 25.25 54.0048C25.25 54.0216 25.25 54.0384 25.25 54.0551C25.25 54.0719 25.25 54.0885 25.25 54.1051C25.25 54.1217 25.25 54.1383 25.25 54.1547C25.25 54.1712 25.25 54.1876 25.25 54.204C25.25 54.2203 25.25 54.2366 25.25 54.2528C25.25 54.269 25.25 54.2852 25.25 54.3013C25.25 54.3174 25.25 54.3334 25.25 54.3494C25.25 54.3654 25.25 54.3813 25.25 54.3971C25.25 54.4129 25.25 54.4287 25.25 54.4444C25.25 54.4601 25.25 54.4758 25.25 54.4914C25.25 54.5069 25.25 54.5225 25.25 54.5379C25.25 54.5534 25.25 54.5688 25.25 54.5841C25.25 54.5994 25.25 54.6147 25.25 54.6299C25.25 54.6451 25.25 54.6602 25.25 54.6753C25.25 54.6903 25.25 54.7053 25.25 54.7202C25.25 54.7352 25.25 54.75 25.25 54.7648C25.25 54.7796 25.25 54.7944 25.25 54.8091C25.25 54.8237 25.25 54.8383 25.25 54.8529C25.25 54.8674 25.25 54.8819 25.25 54.8963C25.25 54.9107 25.25 54.925 25.25 54.9393C25.25 54.9536 25.25 54.9678 25.25 54.9819C25.25 54.996 25.25 55.0101 25.25 55.0241C25.25 55.0381 25.25 55.0521 25.25 55.0659C25.25 55.0798 25.25 55.0936 25.25 55.1073C25.25 55.1211 25.25 55.1347 25.25 55.1483C25.25 55.1619 25.25 55.1754 25.25 55.1889C25.25 55.2024 25.25 55.2158 25.25 55.2291C25.25 55.2424 25.25 55.2557 25.25 55.2689C25.25 55.282 25.25 55.2952 25.25 55.3082C25.25 55.3213 25.25 55.3342 25.25 55.3472C25.25 55.3601 25.25 55.3729 25.25 55.3857C25.25 55.3985 25.25 55.4112 25.25 55.4238C25.25 55.4364 25.25 55.449 25.25 55.4615C25.25 55.474 25.25 55.4864 25.25 55.4988C25.25 55.5111 25.25 55.5234 25.25 55.5356C25.25 55.5478 25.25 55.56 25.25 55.5721C25.25 55.5841 25.25 55.5961 25.25 55.6081C25.25 55.62 25.25 55.6319 25.25 55.6437C25.25 55.6554 25.25 55.6672 25.25 55.6788C25.25 55.6905 25.25 55.702 25.25 55.7135C25.25 55.7251 25.25 55.7365 25.25 55.7478C25.25 55.7592 25.25 55.7705 25.25 55.7817C25.25 55.7929 25.25 55.8041 25.25 55.8152C25.25 55.8262 25.25 55.8372 25.25 55.8482C25.25 55.8591 25.25 55.87 25.25 55.8808C25.25 55.8915 25.25 55.9022 25.25 55.9129C25.25 55.9235 25.25 55.9341 25.25 55.9446C25.25 55.9551 25.25 55.9655 25.25 55.9759C25.25 55.9862 25.25 55.9965 25.25 56.0067C25.25 56.0169 25.25 56.027 25.25 56.0371C25.25 56.0471 25.25 56.0571 25.25 56.067C25.25 56.0769 25.25 56.0867 25.25 56.0965C25.25 56.1063 25.25 56.1159 25.25 56.1255C25.25 56.1352 25.25 56.1447 25.25 56.1541C25.25 56.1636 25.25 56.173 25.25 56.1823C25.25 56.1916 25.25 56.2008 25.25 56.21C25.25 56.2192 25.25 56.2282 25.25 56.2373C25.25 56.2463 25.25 56.2552 25.25 56.2641C25.25 56.2729 25.25 56.2817 25.25 56.2904C25.25 56.2991 25.25 56.3077 25.25 56.3163C25.25 56.3248 25.25 56.3333 25.25 56.3417C25.25 56.3501 25.25 56.3585 25.25 56.3667C25.25 56.375 25.25 56.3831 25.25 56.3912C25.25 56.3993 25.25 56.4073 25.25 56.4153C25.25 56.4232 25.25 56.4311 25.25 56.4389C25.25 56.4467 25.25 56.4544 25.25 56.462C25.25 56.4696 25.25 56.4772 25.25 56.4847C25.25 56.4921 25.25 56.4995 25.25 56.5069C25.25 56.5142 25.25 56.5214 25.25 56.5286C25.25 56.5357 25.25 56.5428 25.25 56.5498C25.25 56.5568 25.25 56.5638 25.25 56.5706C25.25 56.5775 25.25 56.5842 25.25 56.5909C25.25 56.5976 25.25 56.6042 25.25 56.6108C25.25 56.6173 25.25 56.6238 25.25 56.6301C25.25 56.6365 25.25 56.6428 25.25 56.649C25.25 56.6553 25.25 56.6614 25.25 56.6674C25.25 56.6735 25.25 56.6795 25.25 56.6854C25.25 56.6913 25.25 56.6971 25.25 56.7028C25.25 56.7086 25.25 56.7142 25.25 56.7198C25.25 56.7254 25.25 56.7309 25.25 56.7363C25.25 56.7417 25.25 56.747 25.25 56.7523C25.25 56.7575 25.25 56.7627 25.25 56.7678C25.25 56.7729 25.25 56.7779 25.25 56.7828C25.25 56.7877 25.25 56.7926 25.25 56.7974C25.25 56.8021 25.25 56.8068 25.25 56.8114C25.25 56.816 25.25 56.8205 25.25 56.825C25.25 56.8294 25.25 56.8337 25.25 56.838C25.25 56.8423 25.25 56.8465 25.25 56.8506C25.25 56.8547 25.25 56.8587 25.25 56.8626C25.25 56.8666 25.25 56.8704 25.25 56.8742C25.25 56.878 25.25 56.8817 25.25 56.8853C25.25 56.8889 25.25 56.8924 25.25 56.8959C25.25 56.8993 25.25 56.9027 25.25 56.9059C25.25 56.9092 25.25 56.9124 25.25 56.9155C25.25 56.9186 25.25 56.9216 25.25 56.9246C25.25 56.9275 25.25 56.9303 25.25 56.9331C25.25 56.9359 25.25 56.9386 25.25 56.9412C25.25 56.9438 25.25 56.9463 25.25 56.9487C25.25 56.9511 25.25 56.9535 25.25 56.9557C25.25 56.958 25.25 56.9602 25.25 56.9622C25.25 56.9643 25.25 56.9663 25.25 56.9682C25.25 56.9702 25.25 56.972 25.25 56.9737C25.25 56.9755 25.25 56.9771 25.25 56.9787C25.25 56.9803 25.25 56.9818 25.25 56.9832C25.25 56.9846 25.25 56.9859 25.25 56.9871C25.25 56.9883 25.25 56.9895 25.25 56.9905C25.25 56.9916 25.25 56.9925 25.25 56.9934C25.25 56.9943 25.25 56.9951 25.25 56.9958C25.25 56.9965 25.25 56.9971 25.25 56.9976C25.25 56.9981 25.25 56.9986 25.25 56.9989C25.25 56.9993 25.25 56.9996 25.25 56.9997C25.25 56.9999 25.25 57 26 57C26.75 57 26.75 56.9999 26.75 56.9997C26.75 56.9996 26.75 56.9993 26.75 56.9989C26.75 56.9986 26.75 56.9981 26.75 56.9976C26.75 56.9971 26.75 56.9965 26.75 56.9958C26.75 56.9951 26.75 56.9943 26.75 56.9934C26.75 56.9925 26.75 56.9916 26.75 56.9905C26.75 56.9895 26.75 56.9883 26.75 56.9871C26.75 56.9859 26.75 56.9846 26.75 56.9832C26.75 56.9818 26.75 56.9803 26.75 56.9787C26.75 56.9771 26.75 56.9755 26.75 56.9737C26.75 56.972 26.75 56.9702 26.75 56.9682C26.75 56.9663 26.75 56.9643 26.75 56.9622C26.75 56.9602 26.75 56.958 26.75 56.9557C26.75 56.9535 26.75 56.9511 26.75 56.9487C26.75 56.9463 26.75 56.9438 26.75 56.9412C26.75 56.9386 26.75 56.9359 26.75 56.9331C26.75 56.9303 26.75 56.9275 26.75 56.9246C26.75 56.9216 26.75 56.9186 26.75 56.9155C26.75 56.9124 26.75 56.9092 26.75 56.9059C26.75 56.9027 26.75 56.8993 26.75 56.8959C26.75 56.8924 26.75 56.8889 26.75 56.8853C26.75 56.8817 26.75 56.878 26.75 56.8742C26.75 56.8704 26.75 56.8666 26.75 56.8626C26.75 56.8587 26.75 56.8547 26.75 56.8506C26.75 56.8465 26.75 56.8423 26.75 56.838C26.75 56.8337 26.75 56.8294 26.75 56.825C26.75 56.8205 26.75 56.816 26.75 56.8114C26.75 56.8068 26.75 56.8021 26.75 56.7974C26.75 56.7926 26.75 56.7877 26.75 56.7828C26.75 56.7779 26.75 56.7729 26.75 56.7678C26.75 56.7627 26.75 56.7575 26.75 56.7523C26.75 56.747 26.75 56.7417 26.75 56.7363C26.75 56.7309 26.75 56.7254 26.75 56.7198C26.75 56.7142 26.75 56.7086 26.75 56.7028C26.75 56.6971 26.75 56.6913 26.75 56.6854C26.75 56.6795 26.75 56.6735 26.75 56.6674C26.75 56.6614 26.75 56.6553 26.75 56.649C26.75 56.6428 26.75 56.6365 26.75 56.6301C26.75 56.6238 26.75 56.6173 26.75 56.6108C26.75 56.6042 26.75 56.5976 26.75 56.5909C26.75 56.5842 26.75 56.5775 26.75 56.5706C26.75 56.5638 26.75 56.5568 26.75 56.5498C26.75 56.5428 26.75 56.5357 26.75 56.5286C26.75 56.5214 26.75 56.5142 26.75 56.5069C26.75 56.4995 26.75 56.4921 26.75 56.4847C26.75 56.4772 26.75 56.4696 26.75 56.462C26.75 56.4544 26.75 56.4467 26.75 56.4389C26.75 56.4311 26.75 56.4232 26.75 56.4153C26.75 56.4073 26.75 56.3993 26.75 56.3912C26.75 56.3831 26.75 56.375 26.75 56.3667C26.75 56.3585 26.75 56.3501 26.75 56.3417C26.75 56.3333 26.75 56.3248 26.75 56.3163C26.75 56.3077 26.75 56.2991 26.75 56.2904C26.75 56.2817 26.75 56.2729 26.75 56.2641C26.75 56.2552 26.75 56.2463 26.75 56.2373C26.75 56.2282 26.75 56.2192 26.75 56.21C26.75 56.2008 26.75 56.1916 26.75 56.1823C26.75 56.173 26.75 56.1636 26.75 56.1541C26.75 56.1447 26.75 56.1352 26.75 56.1255C26.75 56.1159 26.75 56.1063 26.75 56.0965C26.75 56.0867 26.75 56.0769 26.75 56.067C26.75 56.0571 26.75 56.0471 26.75 56.0371C26.75 56.027 26.75 56.0169 26.75 56.0067C26.75 55.9965 26.75 55.9862 26.75 55.9759C26.75 55.9655 26.75 55.9551 26.75 55.9446C26.75 55.9341 26.75 55.9235 26.75 55.9129C26.75 55.9022 26.75 55.8915 26.75 55.8808C26.75 55.87 26.75 55.8591 26.75 55.8482C26.75 55.8372 26.75 55.8262 26.75 55.8152C26.75 55.8041 26.75 55.7929 26.75 55.7817C26.75 55.7705 26.75 55.7592 26.75 55.7478C26.75 55.7365 26.75 55.7251 26.75 55.7135C26.75 55.702 26.75 55.6905 26.75 55.6788C26.75 55.6672 26.75 55.6554 26.75 55.6437C26.75 55.6319 26.75 55.62 26.75 55.6081C26.75 55.5961 26.75 55.5841 26.75 55.5721C26.75 55.56 26.75 55.5478 26.75 55.5356C26.75 55.5234 26.75 55.5111 26.75 55.4988C26.75 55.4864 26.75 55.474 26.75 55.4615C26.75 55.449 26.75 55.4364 26.75 55.4238C26.75 55.4112 26.75 55.3985 26.75 55.3857C26.75 55.3729 26.75 55.3601 26.75 55.3472C26.75 55.3342 26.75 55.3213 26.75 55.3082C26.75 55.2952 26.75 55.282 26.75 55.2689C26.75 55.2557 26.75 55.2424 26.75 55.2291C26.75 55.2158 26.75 55.2024 26.75 55.1889C26.75 55.1754 26.75 55.1619 26.75 55.1483C26.75 55.1347 26.75 55.1211 26.75 55.1073C26.75 55.0936 26.75 55.0798 26.75 55.0659C26.75 55.0521 26.75 55.0381 26.75 55.0241C26.75 55.0101 26.75 54.996 26.75 54.9819C26.75 54.9678 26.75 54.9536 26.75 54.9393C26.75 54.925 26.75 54.9107 26.75 54.8963C26.75 54.8819 26.75 54.8674 26.75 54.8529C26.75 54.8383 26.75 54.8237 26.75 54.8091C26.75 54.7944 26.75 54.7796 26.75 54.7648C26.75 54.75 26.75 54.7352 26.75 54.7202C26.75 54.7053 26.75 54.6903 26.75 54.6753C26.75 54.6602 26.75 54.6451 26.75 54.6299C26.75 54.6147 26.75 54.5994 26.75 54.5841C26.75 54.5688 26.75 54.5534 26.75 54.5379C26.75 54.5225 26.75 54.5069 26.75 54.4914C26.75 54.4758 26.75 54.4601 26.75 54.4444C26.75 54.4287 26.75 54.4129 26.75 54.3971C26.75 54.3813 26.75 54.3654 26.75 54.3494C26.75 54.3334 26.75 54.3174 26.75 54.3013C26.75 54.2852 26.75 54.269 26.75 54.2528C26.75 54.2366 26.75 54.2203 26.75 54.204C26.75 54.1876 26.75 54.1712 26.75 54.1547C26.75 54.1383 26.75 54.1217 26.75 54.1051C26.75 54.0885 26.75 54.0719 26.75 54.0551C26.75 54.0384 26.75 54.0216 26.75 54.0048C26.75 53.9879 26.75 53.971 26.75 53.9541C26.75 53.9371 26.75 53.92 26.75 53.903C26.75 53.8859 26.75 53.8687 26.75 53.8515C26.75 53.8343 26.75 53.817 26.75 53.7996C26.75 53.7823 26.75 53.7649 26.75 53.7474C26.75 53.73 26.75 53.7124 26.75 53.6949C26.75 53.6773 26.75 53.6596 26.75 53.6419C26.75 53.6242 26.75 53.6065 26.75 53.5886C26.75 53.5708 26.75 53.5529 26.75 53.535C26.75 53.517 26.75 53.499 26.75 53.481C26.75 53.4629 26.75 53.4448 26.75 53.4266C26.75 53.4084 26.75 53.3901 26.75 53.3718C26.75 53.3535 26.75 53.3352 26.75 53.3168C26.75 53.2983 26.75 53.2799 26.75 53.2613C26.75 53.2428 26.75 53.2242 26.75 53.2055C26.75 53.1869 26.75 53.1681 26.75 53.1494C26.75 53.1306 26.75 53.1118 26.75 53.0929C26.75 53.074 26.75 53.055 26.75 53.036C26.75 53.017 26.75 52.9979 26.75 52.9788C26.75 52.9597 26.75 52.9405 26.75 52.9213C26.75 52.9021 26.75 52.8828 26.75 52.8634C26.75 52.8441 26.75 52.8246 26.75 52.8052C26.75 52.7857 26.75 52.7662 26.75 52.7466C26.75 52.727 26.75 52.7074 26.75 52.6877C26.75 52.668 26.75 52.6483 26.75 52.6285C26.75 52.6086 26.75 52.5888 26.75 52.5689C26.75 52.549 26.75 52.529 26.75 52.5089C26.75 52.4889 26.75 52.4688 26.75 52.4487C26.75 52.4286 26.75 52.4084 26.75 52.3881C26.75 52.3679 26.75 52.3475 26.75 52.3272C26.75 52.3068 26.75 52.2864 26.75 52.2659C26.75 52.2455 26.75 52.2249 26.75 52.2044C26.75 52.1838 26.75 52.1631 26.75 52.1424C26.75 52.1218 26.75 52.101 26.75 52.0802C26.75 52.0594 26.75 52.0386 26.75 52.0177C26.75 51.9968 26.75 51.9758 26.75 51.9548C26.75 51.9338 26.75 51.9127 26.75 51.8916C26.75 51.8705 26.75 51.8493 26.75 51.8281C26.75 51.8068 26.75 51.7855 26.75 51.7642C26.75 51.7429 26.75 51.7215 26.75 51.7001C26.75 51.6786 26.75 51.6571 26.75 51.6356C26.75 51.614 26.75 51.5924 26.75 51.5708C26.75 51.5491 26.75 51.5274 26.75 51.5057C26.75 51.4839 26.75 51.4621 26.75 51.4403C26.75 51.4184 26.75 51.3965 26.75 51.3745C26.75 51.3526 26.75 51.3306 26.75 51.3085C26.75 51.2864 26.75 51.2643 26.75 51.2422C26.75 51.22 26.75 51.1978 26.75 51.1755C26.75 51.1533 26.75 51.1309 26.75 51.1086C26.75 51.0862 26.75 51.0638 26.75 51.0413C26.75 51.0188 26.75 50.9963 26.75 50.9738C26.75 50.9512 26.75 50.9286 26.75 50.9059C26.75 50.8832 26.75 50.8605 26.75 50.8377C26.75 50.815 26.75 50.7921 26.75 50.7693C26.75 50.7464 26.75 50.7235 26.75 50.7005C26.75 50.6776 26.75 50.6545 26.75 50.6315C26.75 50.6084 26.75 50.5853 26.75 50.5621C26.75 50.539 26.75 50.5158 26.75 50.4925C26.75 50.4692 26.75 50.4459 26.75 50.4226C26.75 50.3992 26.75 50.3758 26.75 50.3524C26.75 50.3289 26.75 50.3054 26.75 50.2818C26.75 50.2583 26.75 50.2347 26.75 50.2111C26.75 50.1874 26.75 50.1637 26.75 50.14C26.75 50.1162 26.75 50.0925 26.75 50.0686C26.75 50.0448 26.75 50.0209 26.75 49.997C26.75 49.9731 26.75 49.9491 26.75 49.9251C26.75 49.901 26.75 49.877 26.75 49.8529C26.75 49.8287 26.75 49.8046 26.75 49.7804C26.75 49.7562 26.75 49.7319 26.75 49.7076C26.75 49.6833 26.75 49.659 26.75 49.6346C26.75 49.6102 26.75 49.5858 26.75 49.5613C26.75 49.5368 26.75 49.5123 26.75 49.4877C26.75 49.4631 26.75 49.4385 26.75 49.4139C26.75 49.3892 26.75 49.3645 26.75 49.3397C26.75 49.315 26.75 49.2902 26.75 49.2653C26.75 49.2405 26.75 49.2156 26.75 49.1907C26.75 49.1658 26.75 49.1408 26.75 49.1158C26.75 49.0908 26.75 49.0657 26.75 49.0406C26.75 49.0155 26.75 48.9903 26.75 48.9651C26.75 48.9399 26.75 48.9147 26.75 48.8894C26.75 48.8642 26.75 48.8388 26.75 48.8135C26.75 48.7881 26.75 48.7627 26.75 48.7372C26.75 48.7118 26.75 48.6863 26.75 48.6608C26.75 48.6352 26.75 48.6096 26.75 48.584C26.75 48.5584 26.75 48.5327 26.75 48.507C26.75 48.4813 26.75 48.4556 26.75 48.4298C26.75 48.404 26.75 48.3781 26.75 48.3523C26.75 48.3264 26.75 48.3005 26.75 48.2745C26.75 48.2486 26.75 48.2226 26.75 48.1965C26.75 48.1705 26.75 48.1444 26.75 48.1183C26.75 48.0922 26.75 48.066 26.75 48.0398C26.75 48.0136 26.75 47.9873 26.75 47.9611C26.75 47.9348 26.75 47.9084 26.75 47.8821C26.75 47.8557 26.75 47.8293 26.75 47.8029C26.75 47.7764 26.75 47.7499 26.75 47.7234C26.75 47.6969 26.75 47.6703 26.75 47.6437C26.75 47.6171 26.75 47.5905 26.75 47.5638C26.75 47.5371 26.75 47.5104 26.75 47.4836C26.75 47.4568 26.75 47.43 26.75 47.4032C26.75 47.3764 26.75 47.3495 26.75 47.3226C26.75 47.2956 26.75 47.2687 26.75 47.2417C26.75 47.2147 26.75 47.1877 26.75 47.1606C26.75 47.1335 26.75 47.1064 26.75 47.0793C26.75 47.0521 26.75 47.0249 26.75 46.9977C26.75 46.9705 26.75 46.9432 26.75 46.9159C26.75 46.8886 26.75 46.8613 26.75 46.8339C26.75 46.8065 26.75 46.7791 26.75 46.7517C26.75 46.7242 26.75 46.6967 26.75 46.6692C26.75 46.6417 26.75 46.6141 26.75 46.5865C26.75 46.5589 26.75 46.5313 26.75 46.5036C26.75 46.476 26.75 46.4483 26.75 46.4205C26.75 46.3928 26.75 46.365 26.75 46.3372C26.75 46.3094 26.75 46.2816 26.75 46.2537C26.75 46.2258 26.75 46.1979 26.75 46.1699C26.75 46.142 26.75 46.114 26.75 46.0859C26.75 46.0579 26.75 46.0299 26.75 46.0018C26.75 45.9737 26.75 45.9455 26.75 45.9174C26.75 45.8892 26.75 45.861 26.75 45.8328C26.75 45.8046 26.75 45.7763 26.75 45.748C26.75 45.7197 26.75 45.6913 26.75 45.663C26.75 45.6346 26.75 45.6062 26.75 45.5778C26.75 45.5493 26.75 45.5209 26.75 45.4924C26.75 45.4639 26.75 45.4353 26.75 45.4067C26.75 45.3782 26.75 45.3496 26.75 45.3209C26.75 45.2923 26.75 45.2636 26.75 45.2349C26.75 45.2062 26.75 45.1775 26.75 45.1487C26.75 45.1199 26.75 45.0911 26.75 45.0623C26.75 45.0335 26.75 45.0046 26.75 44.9757C26.75 44.9468 26.75 44.9179 26.75 44.8889C26.75 44.86 26.75 44.831 26.75 44.8019C26.75 44.7729 26.75 44.7439 26.75 44.7148C26.75 44.6857 26.75 44.6566 26.75 44.6274C26.75 44.5983 26.75 44.5691 26.75 44.5399C26.75 44.5107 26.75 44.4814 26.75 44.4521C26.75 44.4229 26.75 44.3936 26.75 44.3642C26.75 44.3349 26.75 44.3055 26.75 44.2761C26.75 44.2467 26.75 44.2173 26.75 44.1879C26.75 44.1584 26.75 44.1289 26.75 44.0994C26.75 44.0699 26.75 44.0403 26.75 44.0108C26.75 43.9812 26.75 43.9516 26.75 43.922C26.75 43.8923 26.75 43.8627 26.75 43.833C26.75 43.8033 26.75 43.7736 26.75 43.7438C26.75 43.7141 26.75 43.6843 26.75 43.6545C26.75 43.6247 26.75 43.5948 26.75 43.565C26.75 43.5351 26.75 43.5052 26.75 43.4753C26.75 43.4454 26.75 43.4154 26.75 43.3855C26.75 43.3555 26.75 43.3255 26.75 43.2954C26.75 43.2654 26.75 43.2354 26.75 43.2053C26.75 43.1752 26.75 43.1451 26.75 43.1149C26.75 43.0848 26.75 43.0546 26.75 43.0244C26.75 42.9942 26.75 42.964 26.75 42.9338C26.75 42.9035 26.75 42.8732 26.75 42.8429C26.75 42.8126 26.75 42.7823 26.75 42.752C26.75 42.7216 26.75 42.6912 26.75 42.6608C26.75 42.6304 26.75 42.6 26.75 42.5695C26.75 42.5391 26.75 42.5086 26.75 42.4781C26.75 42.4476 26.75 42.417 26.75 42.3865C26.75 42.3559 26.75 42.3253 26.75 42.2947C26.75 42.2641 26.75 42.2335 26.75 42.2028C26.75 42.1721 26.75 42.1415 26.75 42.1108C26.75 42.08 26.75 42.0493 26.75 42.0186C26.75 41.9878 26.75 41.957 26.75 41.9262C26.75 41.8954 26.75 41.8646 26.75 41.8337C26.75 41.8029 26.75 41.772 26.75 41.7411C26.75 41.7102 26.75 41.6793 26.75 41.6483C26.75 41.6174 26.75 41.5864 26.75 41.5554C26.75 41.5244 26.75 41.4934 26.75 41.4623C26.75 41.4313 26.75 41.4002 26.75 41.3691C26.75 41.3381 26.75 41.3069 26.75 41.2758C26.75 41.2447 26.75 41.2135 26.75 41.1824C26.75 41.1512 26.75 41.12 26.75 41.0888C26.75 41.0575 26.75 41.0263 26.75 40.995C26.75 40.9638 26.75 40.9325 26.75 40.9012C26.75 40.8699 26.75 40.8385 26.75 40.8072C26.75 40.7758 26.75 40.7445 26.75 40.7131C26.75 40.6817 26.75 40.6503 26.75 40.6188C26.75 40.5874 26.75 40.5559 26.75 40.5245C26.75 40.493 26.75 40.4615 26.75 40.43C26.75 40.3985 26.75 40.3669 26.75 40.3354C26.75 40.3038 26.75 40.2722 26.75 40.2406C26.75 40.209 26.75 40.1774 26.75 40.1458C26.75 40.1141 26.75 40.0825 26.75 40.0508C26.75 40.0191 26.75 39.9874 26.75 39.9557C26.75 39.924 26.75 39.8923 26.75 39.8605C26.75 39.8288 26.75 39.797 26.75 39.7652C26.75 39.7334 26.75 39.7016 26.75 39.6698C26.75 39.638 26.75 39.6061 26.75 39.5742C26.75 39.5424 26.75 39.5105 26.75 39.4786C26.75 39.4467 26.75 39.4148 26.75 39.3828C26.75 39.3509 26.75 39.319 26.75 39.287C26.75 39.255 26.75 39.223 26.75 39.191C26.75 39.159 26.75 39.127 26.75 39.0949C26.75 39.0629 26.75 39.0309 26.75 38.9988C26.75 38.9667 26.75 38.9346 26.75 38.9025C26.75 38.8704 26.75 38.8383 26.75 38.8061C26.75 38.774 26.75 38.7418 26.75 38.7097C26.75 38.6775 26.75 38.6453 26.75 38.6131C26.75 38.5809 26.75 38.5487 26.75 38.5164C26.75 38.4842 26.75 38.4519 26.75 38.4197C26.75 38.3874 26.75 38.3551 26.75 38.3228C26.75 38.2905 26.75 38.2582 26.75 38.2259C26.75 38.1936 26.75 38.1612 26.75 38.1289C26.75 38.0965 26.75 38.0641 26.75 38.0317C26.75 37.9994 26.75 37.967 26.75 37.9345C26.75 37.9021 26.75 37.8697 26.75 37.8373C26.75 37.8048 26.75 37.7724 26.75 37.7399C26.75 37.7074 26.75 37.6749 26.75 37.6424C26.75 37.6099 26.75 37.5774 26.75 37.5449C26.75 37.5124 26.75 37.4798 26.75 37.4473C26.75 37.4147 26.75 37.3822 26.75 37.3496C26.75 37.317 26.75 37.2844 26.75 37.2518C26.75 37.2192 26.75 37.1866 26.75 37.154C26.75 37.1213 26.75 37.0887 26.75 37.056C26.75 37.0234 26.75 36.9907 26.75 36.958C26.75 36.9254 26.75 36.8927 26.75 36.86C26.75 36.8273 26.75 36.7946 26.75 36.7618C26.75 36.7291 26.75 36.6964 26.75 36.6636C26.75 36.6309 26.75 36.5981 26.75 36.5654C26.75 36.5326 26.75 36.4998 26.75 36.467C26.75 36.4342 26.75 36.4014 26.75 36.3686C26.75 36.3358 26.75 36.303 26.75 36.2702C26.75 36.2373 26.75 36.2045 26.75 36.1716C26.75 36.1388 26.75 36.1059 26.75 36.0731C26.75 36.0402 26.75 36.0073 26.75 35.9744C26.75 35.9415 26.75 35.9086 26.75 35.8757C26.75 35.8428 26.75 35.8099 26.75 35.7769C26.75 35.744 26.75 35.7111 26.75 35.6781C26.75 35.6452 26.75 35.6122 26.75 35.5793C26.75 35.5463 26.75 35.5133 26.75 35.4804C26.75 35.4474 26.75 35.4144 26.75 35.3814C26.75 35.3484 26.75 35.3154 26.75 35.2824C26.75 35.2494 26.75 35.2163 26.75 35.1833C26.75 35.1503 26.75 35.1172 26.75 35.0842C26.75 35.0512 26.75 35.0181 26.75 34.9851C26.75 34.952 26.75 34.9189 26.75 34.8859C26.75 34.8528 26.75 34.8197 26.75 34.7866C26.75 34.7535 26.75 34.7204 26.75 34.6873C26.75 34.6542 26.75 34.6211 26.75 34.588C26.75 34.5549 26.75 34.5218 26.75 34.4887C26.75 34.4555 26.75 34.4224 26.75 34.3893C26.75 34.3561 26.75 34.323 26.75 34.2898C26.75 34.2567 26.75 34.2235 26.75 34.1904C26.75 34.1572 26.75 34.1241 26.75 34.0909C26.75 34.0577 26.75 34.0246 26.75 33.9914C26.75 33.9582 26.75 33.925 26.75 33.8918C26.75 33.8586 26.75 33.8254 26.75 33.7922C26.75 33.759 26.75 33.7258 26.75 33.6926C26.75 33.6594 26.75 33.6262 26.75 33.593C26.75 33.5598 26.75 33.5266 26.75 33.4934C26.75 33.4601 26.75 33.4269 26.75 33.3937C26.75 33.3605 26.75 33.3272 26.75 33.294C26.75 33.2608 26.75 33.2275 26.75 33.1943C26.75 33.161 26.75 33.1278 26.75 33.0945C26.75 33.0613 26.75 33.028 26.75 32.9948C26.75 32.9615 26.75 32.9283 26.75 32.895C26.75 32.8618 26.75 32.8285 26.75 32.7952C26.75 32.762 26.75 32.7287 26.75 32.6955C26.75 32.6622 26.75 32.6289 26.75 32.5957C26.75 32.5624 26.75 32.5291 26.75 32.4958C26.75 32.4626 26.75 32.4293 26.75 32.396C26.75 32.3628 26.75 32.3295 26.75 32.2962C26.75 32.2629 26.75 32.2296 26.75 32.1964C26.75 32.1631 26.75 32.1298 26.75 32.0965C26.75 32.0633 26.75 32.03 26.75 31.9967C26.75 31.9634 26.75 31.9301 26.75 31.8969C26.75 31.8636 26.75 31.8303 26.75 31.797C26.75 31.7637 26.75 31.7305 26.75 31.6972C26.75 31.6639 26.75 31.6306 26.75 31.5974C26.75 31.5641 26.75 31.5308 26.75 31.4975C26.75 31.4643 26.75 31.431 26.75 31.3977C26.75 31.3644 26.75 31.3312 26.75 31.2979C26.75 31.2646 26.75 31.2314 26.75 31.1981C26.75 31.1648 26.75 31.1316 26.75 31.0983C26.75 31.065 26.75 31.0318 26.75 30.9985C26.75 30.9653 26.75 30.932 26.75 30.8987C26.75 30.8655 26.75 30.8322 26.75 30.799C26.75 30.7657 26.75 30.7325 26.75 30.6993C26.75 30.666 26.75 30.6328 26.75 30.5995C26.75 30.5663 26.75 30.5331 26.75 30.4998C26.75 30.4666 26.75 30.4334 26.75 30.4001C26.75 30.3669 26.75 30.3337 26.75 30.3005C26.75 30.2673 26.75 30.2341 26.75 30.2008C26.75 30.1676 26.75 30.1344 26.75 30.1012C26.75 30.068 26.75 30.0348 26.75 30.0016C26.75 29.9685 26.75 29.9353 26.75 29.9021C26.75 29.8689 26.75 29.8357 26.75 29.8025C26.75 29.7694 26.75 29.7362 26.75 29.703C26.75 29.6699 26.75 29.6367 26.75 29.6036C26.75 29.5704 26.75 29.5373 26.75 29.5041C26.75 29.471 26.75 29.4379 26.75 29.4047C26.75 29.3716 26.75 29.3385 26.75 29.3054C26.75 29.2722 26.75 29.2391 26.75 29.206C26.75 29.1729 26.75 29.1398 26.75 29.1067C26.75 29.0737 26.75 29.0406 26.75 29.0075C26.75 28.9744 26.75 28.9413 26.75 28.9083C26.75 28.8752 26.75 28.8422 26.75 28.8091C26.75 28.7761 26.75 28.743 26.75 28.71C26.75 28.6769 26.75 28.6439 26.75 28.6109C26.75 28.5779 26.75 28.5449 26.75 28.5119C26.75 28.4789 26.75 28.4459 26.75 28.4129C26.75 28.3799 26.75 28.3469 26.75 28.314C26.75 28.281 26.75 28.248 26.75 28.2151C26.75 28.1821 26.75 28.1492 26.75 28.1162C26.75 28.0833 26.75 28.0504 26.75 28.0175C26.75 27.9845 26.75 27.9516 26.75 27.9187C26.75 27.8858 26.75 27.853 26.75 27.8201C26.75 27.7872 26.75 27.7543 26.75 27.7215C26.75 27.6886 26.75 27.6558 26.75 27.6229C26.75 27.5901 26.75 27.5573 26.75 27.5244C26.75 27.4916 26.75 27.4588 26.75 27.426C26.75 27.3932 26.75 27.3604 26.75 27.3277C26.75 27.2949 26.75 27.2621 26.75 27.2294C26.75 27.1966 26.75 27.1639 26.75 27.1311C26.75 27.0984 26.75 27.0657 26.75 27.033C26.75 27.0003 26.75 26.9676 26.75 26.9349C26.75 26.9022 26.75 26.8695 26.75 26.8369C26.75 26.8042 26.75 26.7715 26.75 26.7389C26.75 26.7063 26.75 26.6736 26.75 26.641C26.75 26.6084 26.75 26.5758 26.75 26.5432C26.75 26.5106 26.75 26.4781 26.75 26.4455C26.75 26.413 26.75 26.3804 26.75 26.3479C26.75 26.3153 26.75 26.2828 26.75 26.2503C26.75 26.2178 26.75 26.1853 26.75 26.1528C26.75 26.1203 26.75 26.0879 26.75 26.0554C26.75 26.023 26.75 25.9905 26.75 25.9581C26.75 25.9257 26.75 25.8933 26.75 25.8609C26.75 25.8285 26.75 25.7961 26.75 25.7637C26.75 25.7313 26.75 25.699 26.75 25.6667C26.75 25.6343 26.75 25.602 26.75 25.5697C26.75 25.5374 26.75 25.5051 26.75 25.4728C26.75 25.4405 26.75 25.4083 26.75 25.376C26.75 25.3438 26.75 25.3115 26.75 25.2793C26.75 25.2471 26.75 25.2149 26.75 25.1827C26.75 25.1505 26.75 25.1184 26.75 25.0862C26.75 25.0541 26.75 25.0219 26.75 24.9898C26.75 24.9577 26.75 24.9256 26.75 24.8935C26.75 24.8614 26.75 24.8293 26.75 24.7973C26.75 24.7652 26.75 24.7332 26.75 24.7012C26.75 24.6692 26.75 24.6372 26.75 24.6052C26.75 24.5732 26.75 24.5412 26.75 24.5093C26.75 24.4773 26.75 24.4454 26.75 24.4135C26.75 24.3816 26.75 24.3497 26.75 24.3178C26.75 24.2859 26.75 24.2541 26.75 24.2222C26.75 24.1904 26.75 24.1586 26.75 24.1268C26.75 24.095 26.75 24.0632 26.75 24.0314C26.75 23.9996 26.75 23.9679 26.75 23.9362C26.75 23.9044 26.75 23.8727 26.75 23.841C26.75 23.8093 26.75 23.7777 26.75 23.746C26.75 23.7144 26.75 23.6827 26.75 23.6511C26.75 23.6195 26.75 23.5879 26.75 23.5564C26.75 23.5248 26.75 23.4932 26.75 23.4617C26.75 23.4302 26.75 23.3987 26.75 23.3672C26.75 23.3357 26.75 23.3042 26.75 23.2728C26.75 23.2413 26.75 23.2099 26.75 23.1785C26.75 23.1471 26.75 23.1157 26.75 23.0843C26.75 23.0529 26.75 23.0216 26.75 22.9903C26.75 22.959 26.75 22.9277 26.75 22.8964C26.75 22.8651 26.75 22.8338 26.75 22.8026C26.75 22.7714 26.75 22.7401 26.75 22.709C26.75 22.6778 26.75 22.6466 26.75 22.6154C26.75 22.5843 26.75 22.5532 26.75 22.5221C26.75 22.491 26.75 22.4599 26.75 22.4288C26.75 22.3978 26.75 22.3667 26.75 22.3357C26.75 22.3047 26.75 22.2737 26.75 22.2428C26.75 22.2118 26.75 22.1808 26.75 22.1499C26.75 22.119 26.75 22.0881 26.75 22.0572C26.75 22.0264 26.75 21.9955 26.75 21.9647C26.75 21.9339 26.75 21.9031 26.75 21.8723C26.75 21.8415 26.75 21.8108 26.75 21.78C26.75 21.7493 26.75 21.7186 26.75 21.6879C26.75 21.6573 26.75 21.6266 26.75 21.596C26.75 21.5654 26.75 21.5348 26.75 21.5042C26.75 21.4736 26.75 21.443 26.75 21.4125C26.75 21.382 26.75 21.3515 26.75 21.321C26.75 21.2905 26.75 21.2601 26.75 21.2297C26.75 21.1992 26.75 21.1688 26.75 21.1385C26.75 21.1081 26.75 21.0777 26.75 21.0474C26.75 21.0171 26.75 20.9868 26.75 20.9565C26.75 20.9263 26.75 20.896 26.75 20.8658C26.75 20.8356 26.75 20.8054 26.75 20.7753C26.75 20.7451 26.75 20.715 26.75 20.6849C26.75 20.6548 26.75 20.6247 26.75 20.5946C26.75 20.5646 26.75 20.5346 26.75 20.5046C26.75 20.4746 26.75 20.4446 26.75 20.4147C26.75 20.3847 26.75 20.3548 26.75 20.3249C26.75 20.295 26.75 20.2652 26.75 20.2354C26.75 20.2055 26.75 20.1757 26.75 20.146C26.75 20.1162 26.75 20.0865 26.75 20.0567C26.75 20.027 26.75 19.9973 26.75 19.9677C26.75 19.938 26.75 19.9084 26.75 19.8788C26.75 19.8492 26.75 19.8197 26.75 19.7901C26.75 19.7606 26.75 19.7311 26.75 19.7016C26.75 19.6721 26.75 19.6427 26.75 19.6133C26.75 19.5838 26.75 19.5544 26.75 19.5251C26.75 19.4957 26.75 19.4664 26.75 19.4371C26.75 19.4078 26.75 19.3786 26.75 19.3493C26.75 19.3201 26.75 19.2909 26.75 19.2617C26.75 19.2325 26.75 19.2034 26.75 19.1743C26.75 19.1452 26.75 19.1161 26.75 19.087C26.75 19.058 26.75 19.029 26.75 19H25.25ZM51.4493 34.9763C51.7115 34.2375 51.4606 33.405 50.7936 32.9525L49.9515 34.1938C50.0354 34.2507 50.077 34.3582 50.0357 34.4746L51.4493 34.9763ZM1.96429 34.4746C1.92297 34.3582 1.96459 34.2507 2.04855 34.1938L1.20643 32.9525C0.539361 33.405 0.288453 34.2375 0.55069 34.9763L1.96429 34.4746Z"/><path stroke="#fff" stroke-width="1.5" d="M44 29.5V22C44 20.3431 42.6569 19 41 19H11C9.34315 19 8 20.3431 8 22V29"/><path stroke="#fff" stroke-width="1.5" d="M40 19V16C40 14.8954 39.1046 14 38 14H14C12.8954 14 12 14.8954 12 16V18.7619"/><path stroke="#fff" stroke-width="1.5" d="M36 14V11C36 10.4477 35.5523 10 35 10H17C16.4477 10 16 10.4477 16 11V13.8095"/><path stroke="#fff" stroke-width="1.5" d="M28 10V1.5C28 1.22386 27.7761 1 27.5 1H24.5C24.2239 1 24 1.22386 24 1.5V9.57143"/></svg>